<svg xmlns="http://www.w3.org/2000/svg" viewBox="0 0 1200 1200" xmlns:v="https://vecta.io/nano"><path d="M122.29 681.35c-10.7 93.68 1.46 198 87.45 253.42 36.68 23.65 82.25 37.73 126 38.66h633c238-233.6 24.38-275.4 18.65-311.31s28.82-63.74 39-97.19c23.78-78.12 20-160.12-47.82-215-61.72-49.89-126.37-47.2-192.91-9.88-48.86 27.42-101.32 67.95-157.59 33.88-17.61-15-31.68-33.52-46.73-50.22-45.38-50.39-99.59-97.14-176.42-97.14C259.37 234.94 202 410.9 234.79 532.59c4.31 16 12.47 44.5-1.89 58.14-9.2 8.74-24.8 7-36.43 7.57-50.24 2.37-68.67 34.9-74.18 83.05z" fill="#ededf4"/><path d="M512.77 386.84c12.87-8.16 64-50 64-50l-14.72-17.69-14.71-17.7L496.06 364s3.84 31 16.71 22.84z" fill="#f485b7"/><path d="M577.85,337.15,536.46,370l-28.54-28.77c-1.8-1.81-1.52-5,.62-7.12l38.65-32.67Z" fill="#fdd24c"/><g fill="#1a4b98"><rect x="613.75" y="194.41" width="36.69" height="26.99" rx="13.49" transform="matrix(.799894 -.600141 .600141 .799894 1.73 420.99)"/><path d="M590.87,193.56h14.75a38.16,38.16,0,0,1,38.16,38.16v66.23a4.52,4.52,0,0,1-4.52,4.52h-82a4.52,4.52,0,0,1-4.52-4.52V231.72a38.16,38.16,0,0,1,38.16-38.16Z"/></g><g fill="#f285b6"><path d="M620.45 326.12c-13.63.15-27.25.64-40.86 1.14l4.57-63.82q16 .17 32.08.29 1.76 31.27 4.21 62.39z"/><path d="M572.49 284.34h7.06c15.92 0 44.14-12.94 44.12-28.86v-15a28.82 28.82 0 0 0-28.85-28.8h-7A28.82 28.82 0 0 0 559 240.57v15c0 15.87-2.43 28.78 13.49 28.77z"/><path d="M614.09 251.15c0 8.23 6.28 13.43 13.84 12.88a15.07 15.07 0 0 0 14.15-14.84c0-8.22-6.28-13.43-13.85-12.89a15 15 0 0 0-14.14 14.85z"/></g><g fill="#1a4b98"><rect x="549.58" y="208.68" width="36.69" height="26.99" rx="13.49" transform="matrix(.817849 -.575434 .575434 .817849 -24.4 367.29)"/><rect x="579.83" y="208.66" width="36.69" height="26.99" rx="13.49" transform="matrix(.834848 .550481 -.550481 .834848 221.1 -292.61)"/><rect x="601.96" y="224.73" width="32.66" height="16.72" rx="8.36" transform="matrix(-.0267 .999643 -.999643 -.0267 867.83 -378.74)"/></g><path d="M653.81 445.97l-53.28.54-59.3.05 10.84-58.37-4.88-86.76 51.34-.05 51.34-.05-2.86 86.77 6.8 57.87z" fill="#fdd24c"/><g fill="#f485b7"><path d="M783.69 605.02l-3.43 9.9-3.42 9.91-207.02-19L587.4 483.7l34.5 2.31-14.13 90.44 175.92 28.57z"/><path d="M773.16 674.48l23.26-67.18-12.73-2.3-6.85 19.81s-12.07 48.19-3.68 49.67z"/></g><path d="M777,603.82l19.47,3.49-23.59,68.14C755.66,672.37,770,624,770,624Z" fill="#0d096c"/><path d="M741.69,626a5.56,5.56,0,0,0,5.56-4.2l2.94-11.68,2.53-10a5.58,5.58,0,0,0-4.59-6.87L617.92,570.5a4.34,4.34,0,0,1-.69-.24l16.38-118.14a5.56,5.56,0,0,0-5.38-6.19l-57.76-1.55a4.36,4.36,0,0,0-4.72,4.25l-8.91,171a5.25,5.25,0,0,0,0,1Z" fill="#18161f"/><g fill="#f485b7"><path d="M507.05 648.86l-10.26-2.14-10.26-2.14 7.45-191.81 122.44 15.3-1.67 34.54-90.69-12.44-17.01 158.69z"/><path d="M436.81 647.24l69.59 14.53.64-12.91-20.51-4.28s-49.29-5.86-49.72 2.66z"/></g><path d="M508.83,642.22l-2.45,19.55L435.8,647c.88-17.42,50.72-9.37,50.72-9.37Z" fill="#0d096c"/><path d="M484.93,606.71a5.57,5.57,0,0,0,3.59,6l11.3,4.17,9.71,3.59a5.57,5.57,0,0,0,7.32-3.83L530.2,500.21a5.73,5.73,0,0,1,.23-.7l118.42,14.18a5.57,5.57,0,0,0,6.1-5.5l.47-57.77a4.38,4.38,0,0,0-4.34-4.65L480,440a5.3,5.3,0,0,0-1,.07Z" fill="#262432"/><g fill="#f285b6"><path d="M496.06 364.03L513 254.3l10.37 1.51 10.37 1.5-6.89 108.74-30.79-2.02z"/><path d="M527.87 224.81h0a11.06 11.06 0 0 0-12.44 8.77l-3.19 15.84a11.06 11.06 0 0 0 9.26 13.14l1.74.25a11.07 11.07 0 0 0 12.62-10l1.45-16.09a11.08 11.08 0 0 0-9.44-11.91z"/></g><g stroke="#042e20"><g stroke-miterlimit="10"><path d="M587.9,240.29c-.93,0-8.73-4.94-13-4.93a12.69,12.69,0,1,0,0,25.37c4.3,0,12.09-5,13-5a7.74,7.74,0,0,0,0-15.48Z" fill="#5d5d5d"/><path d="M537.39,236c-1.44,0-13.62-7.71-20.33-7.7a19.82,19.82,0,0,0,0,39.63c6.71,0,18.88-7.74,20.32-7.74a12.1,12.1,0,0,0,0-24.19Z" fill="#457a5f"/></g><ellipse cx="515.33" cy="248.1" rx="14.49" ry="16.23" fill="#aae0f4"/><g stroke-miterlimit="10"><path d="M517.38,267.91c9,0,16.31-8.89,16.3-19.83s-7.32-19.81-16.34-19.8" fill="none"/><path d="M542.48,241.78h-3.82c-2.44,0-2.43,13.66,0,13.66h4.22" fill="#2e5b49"/><path d="M579.56,236c-1.44,0-13.63-7.71-20.33-7.71a19.82,19.82,0,1,0,0,39.63c6.71,0,18.88-7.74,20.32-7.74a12.09,12.09,0,0,0,0-24.18Z" fill="#457a5f"/></g><ellipse cx="557.53" cy="248.06" rx="14.49" ry="16.23" fill="#aae0f4"/><path d="M560.06,267.87c9,0,16.31-8.88,16.3-19.83S569,228.23,560,228.24" fill="none" stroke-miterlimit="10"/></g><path d="M615.27 386.75c12.87-8.17 46.66-45.36 46.66-45.36l-12.06-40.06-51.31 62.61s3.84 30.97 16.71 22.81z" fill="#f485b7"/><path d="M663 341.72l-26.78 31.38-13.71-33.91c-1.8-1.81-1.52-5 .62-7.12l26.74-30.74z" fill="#fdd24c"/><g fill="#f485b7"><path d="M598.35 364.09l-20.8-109.07 10.28-2.05 10.28-2.05 29.93 104.76-29.69 8.41z"/><path d="M581.69 222.26h0a11.06 11.06 0 0 0-8.79 12.43l2.3 16a11.06 11.06 0 0 0 13.12 9.31l1.74-.35a11.06 11.06 0 0 0 8.55-13.65l-4-15.65a11.07 11.07 0 0 0-12.92-8.09z"/></g><path d="M486.18,829.4H482V670.15l-49-49H337.43L186.11,843.88v52.54l49,49H358v8.4l49,49h75V946.39h53.24V878.44ZM358,807v24.29H337.9Z" fill="#9ad9f5"/><path d="M263.4 839.67h103V692.56zm84.54-104.84h2.81v3h-2.81zm-.23 16.34h3.5v3.5h-3.5zm-.47 16.35h4.2v4.2h-4.2zm-.24 16.34h4.68v4.9H347zm-.46 16.35h5.6V803l-1.86 2.57h-3.74zm-7.47-53.94l2.1-3h1.63v3.5h-3.73zm-.24 12.84H343v4.2h-4.21zm-.23 16.35h4.9v4.9h-4.9zm-.24 16.34h5.38v5.6h-5.38zm-.46 16.35h6.1v6.07h-6.1zm-3-55.81v2.8H333zm-4.66 14.94h4.9v4.9h-4.9zm-.24 16.35h5.6V789H330zm-.24 16.12h6.07v6.3h-6.07zm-8.16-24.53h5.6v5.38h-5.6zm-.24 16.35h6.07v6.07h-6.07zm-.47 16.34h7v6.78h-7zm-7.94-24l.47-.69h5.83v6.07h-6.3zm-.24 15.65h6.78v6.77h-6.78zm-8.4-3.27l3.5-5.14h3.28v7h-6.78zm-.31 11.16h7.47v7.47H304zm-1.83-8.45h.93v7.71h-6.3zm-7 10v6.3h-4.43zm.24 22.19h-8.64V824h-1.87l2.34-3.51v3h8.17v-7.94h8.18v7.94h-8.19zm16.34 0h-8.16v-7.39h8.16zm7.94-7.94h-7.47v-7.47h7.47zm8.41 7.94h-7.47v-7h7.47zm7.94-8.18h-6.78v-7H336zm22 8.18H337.9L358 807zm0-36.66l-1.64 2.33h-1.16v-4.67H358zm0-14.48h-2.33v-4.21H358zm0-17h-2.11v-3.5H358zM358 746h-1.87v-2.8H358zm0-16.81h-1.4v-2.33h1.4zm78.23 5.14v2.33h2.33v-2.33zm-.47-17v3.26H439v-3.26zm.94 217.16v2.8h2.8v-2.8zm7.94-191.72v2.34H447v-2.34zm-.47-17.28v3.28h3.26v-3.28zm.93 217.41v2.57h2.57v-2.57zm-1.4-234.45v4.2h4.2v-4.2zm-.46-17.05v5.14h5.13v-5.14zm-.48-17v5.85h6.07v-5.85zm.94 250.56v5.38h5.37v-5.44zm-1.41-267.6v6.77h7v-6.83zM452.8 751v2.33h2.34V751zm-.46-17.05v3.27h3.27v-3.27zm-.23-17v4.2h4v-4.2zm1.17 234.44v2.57h2.8v-2.57zm-1.9-251.59v4.9h5.14v-4.9zm-.22-17.28v6.07H457v-6.07zm.93 250.8v5.13h5.14v-5.13zm-1.4-267.85v7h6.77v-7zm10.51 93.87v2.34h2.33v-2.34zm-.47-17v3.26H464v-3.3zm.93 217.17v2.8h2.57v-2.8zM460.26 725v4.21h4.2V725zm-.46-17v5.14h5.13V708zm-.48-17.05V697h6.07v-6.08zm1.17 250.8v5.14h5.14v-5.14zm-1.64-267.84v6.77h7v-6.77zm10.75 93.87v2.34h2.33v-2.34zm-.47-17.28v3.27h3.27v-3.27zm.94 217.4v2.57h2.57v-2.57zm-1.4-234.44v4.2h4.2v-4.2zm-.47-17v5.13h5.14v-5.13zM263.4 839.67h103V692.56zm84.54-104.84h2.81v3h-2.81zm-.23 16.34h3.5v3.5h-3.5zm-.47 16.35h4.2v4.2h-4.2zm-.24 16.34h4.68v4.9H347zm-.46 16.35h5.6V803l-1.86 2.57h-3.74zm-7.47-53.94l2.1-3h1.63v3.5h-3.73zm-.24 12.84H343v4.2h-4.21zm-.23 16.35h4.9v4.9h-4.9zm-.24 16.34h5.38v5.6h-5.38zm-.46 16.35h6.1v6.07h-6.1zm-3-55.81v2.8H333zm-4.66 14.94h4.9v4.9h-4.9zm-.24 16.35h5.6V789H330zm-.24 16.12h6.07v6.3h-6.07zm-8.16-24.53h5.6v5.38h-5.6zm-.24 16.35h6.07v6.07h-6.07zm-.47 16.34h7v6.78h-7zm-7.94-24l.47-.69h5.83v6.07h-6.3zm-.24 15.65h6.78v6.77h-6.78zm-8.4-3.27l3.5-5.14h3.28v7h-6.78zm-.31 11.16h7.47v7.47H304zm-1.83-8.45h.93v7.71h-6.3zm-7 10v6.3h-4.43zm.24 22.19h-8.64V824h-1.87l2.34-3.51v3h8.17v-7.94h8.18v7.94h-8.19zm16.34 0h-8.16v-7.39h8.16zm7.94-7.94h-7.47v-7.47h7.47zm8.41 7.94h-7.47v-7h7.47zm7.94-8.18h-6.78v-7H336zm22 8.18H337.9L358 807zm0-36.66l-1.64 2.33h-1.16v-4.67H358zm0-14.48h-2.33v-4.21H358zm0-17h-2.11v-3.5H358zM358 746h-1.87v-2.8H358zm0-16.81h-1.4v-2.33h1.4zm112.07 238.68v2.57h2.57v-2.57zm-9.58-21h5.14v-5.14h-5.14zm1.17 15.41h2.57v-2.8h-2.57zm-9.57-23.82h5.14v-5.13h-5.14zm1.17 15.41h2.8v-2.57h-2.8zm-9.58-23.58h5.37v-5.39h-5.37zm1.4 15.18h2.57v-2.57h-2.57zm-8.4-8.18h2.8v-2.8h-2.8zm31.52-220.9v5.13h5.14v-5.13zm.47 21.25h4.2v-4.2h-4.2zm.46 16.11h3.27v-3.27h-3.27zm.47 16.35h2.33v-2.34h-2.33zm-10.75-89.44h7v-6.77h-7zm.47 16.35h6.07v-6.08h-6.07zm.48 16.11h5.13V708h-5.13zm.46 16.11h4.2V725h-4.2zm.47 16.34H464v-3.27h-3.26zm.47 16.12h2.33v-2.34h-2.33zm-10.51-89.2h6.77v-7h-6.77zm.47 16.11H457v-6.07h-5.83zm.22 16.11h5.14v-4.9h-5.14zm.71 16.35h4v-4.2h-4zm.23 16.11h3.27v-3.27h-3.27zm.46 16.11h2.34v-2.33h-2.34zm-10.51-89.2h7v-6.78h-7zm.47 16.12h6.07v-5.85h-6.07zm.48 16.34h5.13v-5.14h-5.13zm.46 16.11h4.2v-4.2h-4.2zm.47 16.12h3.26v-3.28h-3.26zm.47 16.34H447v-2.34h-2.33zm-8.88-24.52H439v-3.26h-3.27zm.47 16.11h2.33v-2.33h-2.33zm50 92.71H482V670.15l-49-49h-95.57L186.11 843.88v52.54l49 49H358v8.4l49 49h75v-56.43h53.24v-67.95zm-50.7-125.17h4v-4h-4v-12.12h4.43V683h-4.43v-11h4.9v-6.07h-4.9v-10.27h5.37v-6.77h-5.37v-9.34h4.21l2.09 2.1V648h6.31l2.1 2.1v6.07h6.07l2.1 2.1v6.31h6.31l2.1 2.1v6.3h6.3l.47.47v8.64h-6.3v7h6.3v10.27h-5.84v5.84h5.84v124.2h-38.06zM211.8 904.12h-6.3V899h6.3zm8.4 8.41h-6.3v-6.3h6.3zm8.64 8.64h-6.3v-6.31h6.3zm-6.53-17V899h6.31v5.13zm14.95 25.45H231v-6.3h6.31zm-6.54-17v-6.3H237v6.3zm15.17 24.52h-6.3v-5.13h6.3zm-6.54-15.88v-6.31h6.31v6.31zm6.54-17h-6.3V899h6.3zm8.18 25.45h-6.3v-6.3h6.3zm.23-17H248v-6.3h6.31zm8.41 24.52h-6.31v-5.13h6.31zm.23-15.88h-6.3v-6.31h6.3zm-5.84-17.51V899h5.37v4.67zm14.25 25.91H265v-6.3h6.31zm-5.84-17.27v-5.61h5.6v5.61zM280 937.05h-6.3v-5.13h6.3zm-.46-21.71v5.36h-5.37v-5.36zm-5.13-12.15V899h4.66v4.2zm13.77 26.16h-5.61v-5.61h5.61zM283 911.83v-4.67h4.67v4.67zm13.54 25.22h-5.37v-4.67h5.37zm-.46-21.49v4.68h-4.67v-4.68zm-4.2-12.83V899h3.73v3.74zm12.84 26.15h-4.67v-4.67h4.67zm-4.2-17.52v-3.73h3.73v3.73zm12.6 25.69h-4.66v-4.2h4.66zm-.47-21v3.74h-3.73V916zm-3.26-13.77v-2.81h3v2.81zm11.91 26.15h-3.73v-3.74h3.73zm-3.27-17.52v-2.8h2.8v2.8zm11.67 25.93H326v-3.74h3.73zm-.23-20.32v2.81h-3v-2.83zM326.92 902v-2.33h2.33V902zm11 25.92h-2.8v-2.8h2.8zm-2.57-17.51v-2.34h2.34v2.34zm11.21 25.92h-3v-2.81h3zM344 919.07v-2.33h2.33v2.33zm10.74 8.4h-2.34v-2.33h2.34zm118.86 22.42h-4.9v5.37h4.9v39.23l-38.06-38.06v-34.55h5.14v-5.14h-5.14v-10.28h4.9l2.1 2.1v6.3h6.3l2.11 2.1V923H457l2.1 2.1v6.3h6.3l2.11 2.1v6.31l6.07.23zm6.78-58.38H427.1V948h-60.72v-57.42H194.52v-43.9L342.1 629.51h85v208.3h53.25zM526.81 938l-38.06-38.06v-56.3l38.06 38.06zM468.2 721.51h5.14v-5.13h-5.14zm.47 16.12h4.2v-4.2h-4.2zm4 230.24h-2.57v2.57h2.57zm-3.51-214.13h3.27v-3.27h-3.27zm.47 16.35h2.33v-2.34h-2.36zm-10.75-89.44h7v-6.77h-7zm1.64 266.21h5.14v-5.14h-5.14zM459.32 697h6.07v-6.08h-6.07zm.48 16.11h5.13V708h-5.13zm.46 16.11h4.2V725h-4.2zm1.4 233h2.57v-2.8h-2.57zm-.93-216.71H464v-3.21h-3.26zm.47 16.12h2.33v-2.34h-2.33zm-10.51-89.2h6.77v-7h-6.77zm1.4 266h5.14v-5.13h-5.14zm-.93-249.86H457v-6.07h-5.83zm.22 16.11h5.14v-4.9h-5.14zm1.88 249.16h2.8v-2.57h-2.8zm-1.17-232.81h4v-4.2h-4zm.23 16.11h3.27v-3.27h-3.27zm.46 16.11h2.34v-2.33h-2.34zm-10.51-89.2h7v-6.75h-7zm1.41 266.21h5.37v-5.36h-5.37zm-.94-250.09h6.07v-5.85h-6.07zm.48 16.34h5.13v-5.14h-5.13zm.46 16.11h4.2v-4.2h-4.2zm1.4 232.82h2.57v-2.57h-2.57zm-.93-216.7h3.26v-3.28h-3.26zm.47 16.34H447v-2.34h-2.33zm-7.94 192.18h2.8v-2.8h-2.8zm-.94-216.7H439v-3.26h-3.27zm.47 16.11h2.33v-2.33h-2.33zm-69.83 103V692.56l-103 147.11zm-9.8-112.78H358v2.33h-1.4zm-.47 16.34H358V746h-1.87zm-.24 16.35H358v3.5h-2.11zm-.22 16.34H358v4.21h-2.33zm-.47 16.35H358v2.34l-1.64 2.33h-1.16zm-7.24-57.44h2.81v3h-2.81zm-.23 16.34h3.5v3.5h-3.5zm-.47 16.35h4.2v4.2h-4.2zm-.24 16.34h4.68v4.9H347zm-.46 16.35h5.6V803l-1.86 2.57h-3.74zm-7.47-53.94l2.1-3h1.63v3.5h-3.73zm-.24 12.84H343v4.2h-4.21zm-.23 16.35h4.9v4.9h-4.9zm-.24 16.34h5.38v5.6h-5.38zm-.46 16.35h6.1v6.07h-6.1zM358 807v24.29h-20.1zm-23.12-54.64v2.8H333zm-4.66 14.94h4.9v4.9h-4.9zm-.22 16.33h5.6V789H330zm-.24 16.12h6.07v6.3h-6.07zm-.47 16.34H336v7h-6.78zm-7.69-40.87h5.6v5.38h-5.6zm-.24 16.35h6.07v6.07h-6.07zm-.47 16.34h7v6.78h-7zm-.23 16.35h7.47v7h-7.47zm-7.71-40.4l.47-.69h5.83v6.07h-6.3zm-.24 15.65h6.78v6.77h-6.78zm-.46 16.35h7.47v7.47h-7.47zm-.47 15.41h-8.16v-7.47h8.16zm-7.47-35l3.5-5.14h3.28v7h-6.78zm-.31 11.18h7.47v7.47H304zm-1.83-8.45h.93v7.71h-6.3zm-7 10v6.3h-4.43zm.24 14.48v-7.94h8.18v7.94h-8.19v7.71h-8.64V824h-1.87l2.34-3.51v3zm-32 16.11h103V692.56zm84.54-104.84h2.81v3h-2.81zm-.23 16.34h3.5v3.5h-3.5zm-.47 16.35h4.2v4.2h-4.2zm-.25 16.42h4.68v4.9H347zm-.46 16.35h5.6V803l-1.86 2.57h-3.74zm-7.47-53.94l2.1-3h1.63v3.5h-3.73zm-.24 12.84H343v4.2h-4.21zm-.23 16.35h4.9v4.9h-4.9zm-.24 16.34h5.38v5.6h-5.38zm-.46 16.35h6.1v6.07h-6.1zm-3-55.81v2.8H333zm-4.66 14.94h4.9v4.9h-4.9zm-.24 16.35h5.6V789H330zm-.24 16.12h6.07v6.3h-6.07zm-8.16-24.53h5.6v5.38h-5.6zm-.24 16.35h6.07v6.07h-6.07zm-.47 16.34h7v6.78h-7zm-7.94-24l.47-.69h5.83v6.07h-6.3zm-.24 15.65h6.78v6.77h-6.78zm-8.4-3.27l3.5-5.14h3.28v7h-6.78zm-.31 11.16h7.47v7.47H304zm-1.83-8.45h.93v7.71h-6.3zm-7 10v6.3h-4.43zm.24 22.19h-8.64V824h-1.87l2.34-3.51v3h8.17v-7.94h8.18v7.94h-8.19zm16.34 0h-8.16v-7.39h8.16zm7.94-7.94h-7.47v-7.47h7.47zm8.41 7.94h-7.47v-7h7.47zm7.94-8.18h-6.78v-7H336zm22 8.18H337.9L358 807zm0-36.66l-1.64 2.33h-1.16v-4.67H358zm0-14.48h-2.33v-4.21H358zm0-17h-2.11v-3.5H358zM358 746h-1.87v-2.8H358zm0-16.81h-1.4v-2.33h1.4zm-94.6 110.48h103V692.56zm84.54-104.84h2.81v3h-2.81zm-.23 16.34h3.5v3.5h-3.5zm-.47 16.35h4.2v4.2h-4.2zm-.24 16.34h4.68v4.9H347zm-.46 16.35h5.6V803l-1.86 2.57h-3.74zm-7.47-53.94l2.1-3h1.63v3.5h-3.73zm-.24 12.84H343v4.2h-4.21zm-.23 16.35h4.9v4.9h-4.9zm-.24 16.34h5.38v5.6h-5.38zm-.46 16.35h6.1v6.07h-6.1zm-3-55.81v2.8H333zm-4.66 14.94h4.9v4.9h-4.9zm-.24 16.35h5.6V789H330zm-.24 16.12h6.07v6.3h-6.07zm-8.16-24.53h5.6v5.38h-5.6zm-.24 16.35h6.07v6.07h-6.07zm-.47 16.34h7v6.78h-7zm-7.94-24l.47-.69h5.83v6.07h-6.3zm-.24 15.65h6.78v6.77h-6.78zm-8.4-3.27l3.5-5.14h3.28v7h-6.78zm-.31 11.16h7.47v7.47H304zm-1.83-8.45h.93v7.71h-6.3zm-7 10v6.3h-4.43zm.24 22.19h-8.64V824h-1.87l2.34-3.51v3h8.17v-7.94h8.18v7.94h-8.19zm16.34 0h-8.16v-7.39h8.16zm7.94-7.94h-7.47v-7.47h7.47zm8.41 7.94h-7.47v-7h7.47zm7.94-8.18h-6.78v-7H336zm22 8.18H337.9L358 807zm0-36.66l-1.64 2.33h-1.16v-4.67H358zm0-14.48h-2.33v-4.21H358zm0-17h-2.11v-3.5H358zM358 746h-1.87v-2.8H358zm0-16.81h-1.4v-2.33h1.4zm78.23 5.14v2.33h2.33v-2.33zm-.47-17v3.26H439v-3.26zm8.88 25.44v2.34H447v-2.34zm-.47-17.28v3.28h3.26v-3.28zm-.47-17v4.2h4.2v-4.2zm-.46-17.05v5.14h5.13v-5.14zm-.48-17v5.85h6.07v-5.85zm-.47-17v6.77h7v-6.91zm10.51 93.64v2.33h2.34v-2.33zm-.46-17.05v3.27h3.27v-3.27zm-.23-17v4.2h4v-4.2zm-.71-17.05v4.9h5.14v-4.9zm-.22-17.28v6.07H457v-6.07zm-.47-17v7h6.77v-7zm10.51 93.87v2.34h2.33v-2.34zm-.47-17v3.26H464v-3.53zm-.49-17.57v4.21h4.2V725zm-.46-17v5.14h5.13V708zm-.48-17.05V697h6.07v-6.08zm-.47-17v6.77h7v-6.77zm10.75 93.87v2.34h2.33v-2.34zm-.47-17.28v3.27h3.27v-3.27zm-.46-17v4.2h4.2v-4.2zm-.47-17v5.13h5.14v-5.13zm-31.52 218.1v2.8h2.8v-2.8zm8.4 8.41v2.57h2.57v-2.57zm-1.4-18v5.38h5.37v-5.53zm9.58 26.39v2.57h2.8v-2.57zm-1.17-18v5.13h5.14v-5.13zm9.57 26.15v2.8h2.57v-2.8zm-1.17-17.75v5.14h5.14v-5.14zm9.58 26.15v2.57h2.57v-2.57zm-34.33-250.67v3.26H439v-3.26zm.47 17v2.33h2.33v-2.33zm.47 200.12v2.8h2.8v-2.8zm5.59-277.18v6.77h7v-6.73zm.47 17v5.85h6.07v-5.85zm.48 17v5.14h5.13v-5.14zm.46 17.05v4.2h4.2v-4.2zm0 216.46v5.38h5.37v-5.25zm.47-199.42v3.28h3.26v-3.28zm.47 17.28v2.34H447v-2.34zm.46 200.13v2.57h2.57v-2.57zm5.61-277.42v7h6.77v-7zm.47 17v6.07H457v-6.07zm.22 17.28v4.9h5.14v-4.9zm.71 17.05v4.2h4v-4.2zm0 216.47v5.13h5.14v-5.13zm.23-199.43v3.27h3.27v-3.27zm.46 17.05v2.33h2.34v-2.33zm.48 200.35v2.57h2.8v-2.57zm5.59-277.41v6.77h7v-6.77zm.47 17v6.3h6.07v-6.08zm.48 17.3v5.14h5.13V708zm.46 17v4.21h4.2V725zm.23 216.71v5.14h5.14v-5.14zm.24-199.42v3.26H464v-3.25zm.47 17v2.34h2.33v-2.34zm.46 200.13v2.8h2.57v-2.8zm6.54-243.09v5.13h5.14v-5.13zm.47 17v4.2h4.2v-4.2zm.46 17v3.27h3.27v-3.27zm.47 17.28v2.34h2.33v-2.34zm.47 200.12v2.57h2.57v-2.57z" fill="#152b35"/><path d="M739.41 699.8l-40.63-40.4c-26.39-28-61.65-44.6-101.82-44.6-85.23 0-149 74.72-149 174.67a214.36 214.36 0 0 0 4.68 45.06q1.71 8 4 15.7a186.43 186.43 0 0 0 31.47 61.37q4.05 5.19 8.41 10 2.63 2.89 5.36 5.64l40.4 40.63A146.81 146.81 0 0 0 554 978.38c55.43 33.23 112.5 41.47 172.83 0 25.18-20 44.35-49 54.62-83.49V773c-8.26-28.73-22.45-53.64-42.04-73.2zM638.53 733a34.83 34.83 0 0 1 14.48 2.8c6.77 15.18 10.74 33.39 10.74 53.71 0 55.1-28.73 96.21-66.79 96.21a50.07 50.07 0 0 1-15.64-2.57c-6.54-13.78-9.58-30.36-9.58-54.41 0-53.99 29.19-95.74 66.79-95.74z" fill="#f285b6"/><path d="M531.35 786.43v2.33h2.33v-2.33zm8.17 8.18v2.33h2.34v-2.33zm-.47-17.05v3.5h3.51v-3.5zm-.47-17.28V765H543v-4.67zm-.23-17v5.61H544v-5.61zm9.58 59.72v2.33h2.33V803zm-.47-17.28v3.51H551v-3.51zm-.46-17.04v4.45h4.43v-4.45zm-.71-17.27V757h5.61v-5.6zm-.47-17.29v6.78h6.78v-6.78zm10.51 77.29v2.35h2.33v-2.35zm-.7-17.27v3.5h3.74v-3.5zm-.47-17.28v4.67h4.67v-4.67zm-.47-17.05v5.61h5.61v-5.61zm-.69-17.28v6.77h6.77v-6.77zm9.58 42.73v4.67H568v-4.67zm-.47-17.26v5.83h5.59V768zm-.71-17v6.77h6.78V751zm8.41 8.17v6.77h6.77v-6.77zm0 0v6.77h6.77v-6.77zM562.4 751v6.77h6.78V751zm.71 17v5.83h5.59V768zm.47 17.27v4.67H568v-4.67zM554 742.53v6.77h6.77v-6.77zm.69 17.28v5.61h5.61v-5.61zm.47 17.05v4.67h4.67v-4.67zm.47 17.28v3.5h3.74v-3.5zm.7 17.27v2.35h2.33v-2.35zm-10.51-77.29v6.78h6.78v-6.78zm.47 17.29V757h5.61v-5.6zm.71 17.27v4.45h4.43v-4.45zm.46 17.05v3.51H551v-3.51zm.47 17.28v2.33h2.33V803zm-9.58-59.78v5.61H544v-5.61zm.23 17V765H543v-4.67zm.47 17.28v3.5h3.51v-3.5zm.47 17.05v2.33h2.34v-2.33zm-8.17-8.18v2.33h2.33v-2.33zm0 0v2.33h2.33v-2.33zm8.17 8.18v2.33h2.34v-2.33zm-.47-17.05v3.5h3.51v-3.5zm-.47-17.28V765H543v-4.67zm-.23-17v5.61H544v-5.61zm9.58 59.77v2.33h2.33V803zm-.47-17.28v3.51H551v-3.51zm-.46-17.04v4.45h4.43v-4.45zm-.71-17.27V757h5.61v-5.6zm-.47-17.29v6.78h6.78v-6.78zm10.51 77.29v2.35h2.33v-2.35zm-.7-17.27v3.5h3.74v-3.5zm-.47-17.28v4.67h4.67v-4.67zm-.47-17.05v5.61h5.61v-5.61zm-.69-17.28v6.77h6.77v-6.77zm9.58 42.73v4.67H568v-4.67zm-.47-17.26v5.83h5.59V768zm-.71-17v6.77h6.78V751zm8.41 8.17v6.77h6.77v-6.77zm0 0v6.77h6.77v-6.77zm-8.41-1.4h6.78V751h-6.78zm.71 16.11h5.59V768h-5.59zm.47 16.11H568v-4.67h-4.43zM554 749.3h6.77v-6.77H554zm.69 16.12h5.61v-5.61h-5.61zm.47 16.11h4.67v-4.67h-4.67zm.47 16.11h3.74v-3.5h-3.74zm.7 16.12h2.33v-2.35h-2.33zm-10.51-72.86h6.78v-6.78h-6.78zm.47 16.11h5.61v-5.6h-5.61zm.71 16.12h4.43v-4.45H547zm.46 16.11H551v-3.51h-3.5zm.47 16.1h2.33V803h-2.33zm-9.58-56.5H544v-5.61h-5.61zm.23 16.11H543v-4.67h-4.45zm.47 16.11h3.51v-3.5h-3.51zm.47 15.88h2.34v-2.33h-2.34zm-8.17-8.18h2.33v-2.33h-2.33zm65.38-103.67c-42.5 0-75.19 45.53-75.19 104.15 0 52.76 29 104.84 75.42 104.84 43.2 0 75.2-44.83 75.2-104.61 0-53.47-28.26-104.38-75.43-104.38zm25.69 34.79H625v2.8h-2.56zm-8.42-8.17h2.81v2.57H614zm-.7 15.87h4.2v.94l-4.2 1.63zm-7.47-24.27h2.56v2.79h-2.56zm-.94 15.87h4.21v4.21h-4.2zm-7.47-24H600v2.57h-2.57zm-.7 15.87h4v4h-4zm-.7 15.89h5.37v5.6H596zm-7.71-24.29h4.21v4.21h-4.21zm-.69 15.88h5.6v5.6h-5.6zm-.47 16.11h6.77v6.78h-6.77zm-.71 15.88h1.64l-1.64 2.1zm-6.3-53.94l4-1.17v3h-4zm-.7 13.78h5.37v5.37h-5.37zm-.7 15.88h6.77V733h-6.77zm-7.7-24.29h5.6v5.6h-5.6zm-.7 16.05h6.78v6.78h-6.78zm-8.17-8.4h6.77v6.77h-6.77zm9.1 71.45a150.89 150.89 0 0 0-5.6 21.25H564v3.74h1a143.36 143.36 0 0 0-1.63 22.65c0 20.32 2.1 36 6.77 49-26.39-16.11-39.93-52.31-39.93-88.26a132.24 132.24 0 0 1 .93-16.81h3.27v-3.51h-2.8c1.87-11.91 5.14-24.52 11-36h2.09V729l2.35-4h6.07v-7.69h8.16v7.93h-7.7v7.94h7.94v-7.71h7.94v8.18h-7.47v7.93h7.94v-7.7h7.93v8.17h-7.7v8h7.94v-7.75h8.18v7.94h-7.71v7.93h4a110.27 110.27 0 0 0-9.34 18.22h-1.88zM597 885.68a50.07 50.07 0 0 1-15.64-2.57c-6.54-13.78-9.58-30.36-9.58-54.41 0-54 29.19-95.74 66.79-95.74a34.83 34.83 0 0 1 14.48 2.8c6.77 15.18 10.74 33.39 10.74 53.71-.04 55.1-28.79 96.21-66.79 96.21zm-19.42-126.57h-6.77v6.77h6.77zm-15.18-1.4h6.78v-6.77h-6.78zm.71 16.11h5.59V768h-5.59zm.47 16.11H568v-4.67h-4.43zM554 749.3h6.77v-6.77H554zm.69 16.12h5.61v-5.61h-5.61zm.47 16.11h4.67v-4.67h-4.67zm.47 16.11h3.74v-3.5h-3.74zm.7 16.12h2.33v-2.35h-2.33zm-10.51-72.86h6.78v-6.78h-6.78zm.47 16.11h5.61v-5.6h-5.61zm.71 16.12h4.43v-4.45H547zm.46 16.11H551v-3.51h-3.5zm.47 16.1h2.33V803h-2.33zm-9.58-56.5H544v-5.61h-5.61zm.23 16.11H543v-4.67h-4.45zm.47 16.11h3.51v-3.5h-3.51zm.47 15.88h2.34v-2.33h-2.34zm-8.17-8.18h2.33v-2.33h-2.33zm0-2.33v2.33h2.33v-2.33zm8.17 8.18v2.33h2.34v-2.33zm-.47-17.05v3.5h3.51v-3.5zm-.47-17.28V765H543v-4.67zm-.23-17v5.61H544v-5.61zm9.58 59.72v2.33h2.33V803zm-.47-17.28v3.51H551v-3.51zm-.46-17.04v4.45h4.43v-4.45zm-.71-17.27V757h5.61v-5.6zm-.47-17.29v6.78h6.78v-6.78zm10.51 77.29v2.35h2.33v-2.35zm-.7-17.27v3.5h3.74v-3.5zm-.47-17.28v4.67h4.67v-4.67zm-.47-17.05v5.61h5.61v-5.61zm-.69-17.28v6.77h6.77v-6.77zm9.58 42.73v4.67H568v-4.67zm-.47-17.26v5.83h5.59V768zm-.71-17v6.77h6.78V751zm8.41 8.17v6.77h6.77v-6.77zm0 0v6.77h6.77v-6.77zM562.4 751v6.77h6.78V751zm.71 17v5.83h5.59V768zm.47 17.27v4.67H568v-4.67zM554 742.53v6.77h6.77v-6.77zm.69 17.28v5.61h5.61v-5.61zm.47 17.05v4.67h4.67v-4.67zm.47 17.28v3.5h3.74v-3.5zm.7 17.27v2.35h2.33v-2.35zm-10.51-77.29v6.78h6.78v-6.78zm.47 17.29V757h5.61v-5.6zm.71 17.27v4.45h4.43v-4.45zm.46 17.05v3.51H551v-3.51zm.47 17.28v2.33h2.33V803zm-9.58-59.78v5.61H544v-5.61zm.23 17V765H543v-4.67zm.47 17.28v3.5h3.51v-3.5zm.47 17.05v2.33h2.34v-2.33zm-8.17-8.18v2.33h2.33v-2.33zm179.34 126.8v7.94h7.93v-7.94zm8.64-7.93v7.23h7.23v-7.18zm-.24 16.34v7.71h7.71v-7.71zM728.2 881v5.83h6.07V881zm-.2 16.35v6.54h6.54v-6.54zm-.23 16.11v7.24h7v-7.24zm-.46 16.35v7.94h7.93v-7.94zm10-73.09v4.43H742v-4.43zm-.47 16.11v5.37h5.37v-5.37zm-.24 16.35v6.07h5.85v-6.07zm-.22 16.34v6.54h6.53v-6.54zm-.47 16.36v7.23h7.23v-7.23zm-.24 16.34v7.93h7.71v-7.93zm11-138.71v2.33H749v-2.33zm-.22 16.35v2.8h3v-2.8zm-.24 16.34v3.5h3.5v-3.5zm-.21 16.34v4h4v-4zm-.47 16.35v4.68h4.67v-4.68zm-.23 16.35v5.37h5.36v-5.37zm-.3 16.35v5.83h5.84v-5.83zm-.47 16.34v6.54h6.54v-6.54zm-.23 16.35v7.23h7.24v-7.23zm10.74-122.37v2.34h2.34v-2.34zm-.23 16.35v2.8h2.8v-2.8zm-.47 16.34v3.51h3.51v-3.51zm-.22 16.4v4h4.2v-4zm-.23 16.34V878h4.67v-4.7zm-.24 16.35v5.13h5.14v-5.13zm-.47 16.31v5.84h6.07V906zm10.28-89.9v2.33h2.33v-2.33zm-.46 16.34v3h3v-3zm-.24 16.34v3.5h3.5v-3.5zm-.23 16.34v4.21h4v-4.21zm-.24 16.35v4.68h4.44v-4.68zm-.47 16.34v5.38h5.37v-5.38zm9.81-73.32v2.34H774v-2.34zm-.23 16.35v2.8h2.8v-2.8zm-.24 16.34v3.51h3.5v-3.51zm-.23 16.36v4h4v-4zm0 0v4h4v-4zm.23-16.36v3.51h3.5v-3.51zm.24-16.34v2.8h2.8v-2.8zm.23-16.35v2.34H774v-2.34zm-9.81 73.32v5.38h5.37v-5.38zm.47-16.34v4.68h4.44v-4.68zm.24-16.35v4.21h4v-4.21zm.23-16.34v3.5h3.5v-3.5zm.24-16.34v3h3v-3zm.46-16.35v2.33h2.33v-2.33zM753.18 906v5.84h6.07V906zm.47-16.34v5.13h5.14v-5.13zm.24-16.35V878h4.67v-4.7zm.23-16.34v4h4.2v-4zm.23-16.36v3.51h3.51v-3.52zm.47-16.34v2.8h2.8v-2.8zm.23-16.35v2.34h2.34v-2.34zm-10.74 122.36v7.23h7.24v-7.23zm.23-16.35v6.54h6.54v-6.54zm.47-16.34v5.83h5.84v-5.83zm.24-16.35v5.37h5.36v-5.37zm.23-16.35v4.68h4.67v-4.68zm.47-16.35v4h4v-4zm.23-16.34v3.5h3.5v-3.5zm.24-16.34v2.8h3v-2.8zm.22-16.35v2.33H749v-2.33zm-11 138.71v7.93h7.71v-7.93zm.24-16.34v7.23h7.23v-7.23zm.47-16.36v6.54h6.53v-6.54zm.22-16.34v6.07h5.85v-6.07zm.24-16.35v5.37h5.37v-5.37zm.47-16.11v4.43H742v-4.43zm-10 73.09v7.94h7.93v-7.94zm.46-16.35v7.24h7v-7.24zm.23-16.11v6.54h6.54v-6.54zm.23-16.35v5.83h6.07V881zm-9.11 40.63v7.71h7.71v-7.71zm.24-16.34v7.23h7.23v-7.22zm-8.64 7.93v7.94h7.93v-7.94zM531.35 786.43v2.33h2.33v-2.33zm8.17 8.18v2.33h2.34v-2.33zm-.47-17.05v3.5h3.51v-3.5zm-.47-17.28V765H543v-4.67zm-.23-17v5.61H544v-5.61zm9.58 59.72v2.33h2.33V803zm-.47-17.28v3.51H551v-3.51zm-.46-17.04v4.45h4.43v-4.45zm-.71-17.27V757h5.61v-5.6zm-.47-17.29v6.78h6.78v-6.78zm10.51 77.29v2.35h2.33v-2.35zm-.7-17.27v3.5h3.74v-3.5zm-.47-17.28v4.67h4.67v-4.67zm-.47-17.05v5.61h5.61v-5.61zm-.69-17.28v6.77h6.77v-6.77zm9.58 42.73v4.67H568v-4.67zm-.47-17.26v5.83h5.59V768zm-.71-17v6.77h6.78V751zm8.41 8.17v6.77h6.77v-6.77zm0 0v6.77h6.77v-6.77zm-8.41-1.4h6.78V751h-6.78zm.71 16.11h5.59V768h-5.59zm.47 16.11H568v-4.67h-4.43zM554 749.3h6.77v-6.77H554zm.69 16.12h5.61v-5.61h-5.61zm.47 16.11h4.67v-4.67h-4.67zm.47 16.11h3.74v-3.5h-3.74zm.7 16.12h2.33v-2.35h-2.33zm-10.51-72.86h6.78v-6.78h-6.78zm.47 16.11h5.61v-5.6h-5.61zm.71 16.12h4.43v-4.45H547zm.46 16.11H551v-3.51h-3.5zm.47 16.1h2.33V803h-2.33zm-9.58-56.5H544v-5.61h-5.61zm.23 16.11H543v-4.67h-4.45zm.47 16.11h3.51v-3.5h-3.51zm.47 15.88h2.34v-2.33h-2.34zm-8.17-8.18h2.33v-2.33h-2.33zm65.38-103.67c-42.5 0-75.19 45.53-75.19 104.15 0 52.76 29 104.84 75.42 104.84 43.2 0 75.2-44.83 75.2-104.61 0-53.47-28.26-104.38-75.43-104.38zm25.69 34.79H625v2.8h-2.56zm-8.42-8.17h2.81v2.57H614zm-.7 15.87h4.2v.94l-4.2 1.63zm-7.47-24.27h2.56v2.79h-2.56zm-.94 15.87h4.21v4.21h-4.2zm-7.47-24H600v2.57h-2.57zm-.7 15.87h4v4h-4zm-.7 15.89h5.37v5.6H596zm-7.71-24.29h4.21v4.21h-4.21zm-.69 15.88h5.6v5.6h-5.6zm-.47 16.11h6.77v6.78h-6.77zm-.71 15.88h1.64l-1.64 2.1zm-6.3-53.94l4-1.17v3h-4zm-.7 13.78h5.37v5.37h-5.37zm-.7 15.88h6.77V733h-6.77zm-7.7-24.29h5.6v5.6h-5.6zm-.7 16.05h6.78v6.78h-6.78zm-8.17-8.4h6.77v6.77h-6.77zm9.1 71.45a150.89 150.89 0 0 0-5.6 21.25H564v3.74h1a143.36 143.36 0 0 0-1.63 22.65c0 20.32 2.1 36 6.77 49-26.39-16.11-39.93-52.31-39.93-88.26a132.24 132.24 0 0 1 .93-16.81h3.27v-3.51h-2.8c1.87-11.91 5.14-24.52 11-36h2.09V729l2.35-4h6.07v-7.69h8.16v7.93h-7.7v7.94h7.94v-7.71h7.94v8.18h-7.47v7.93h7.94v-7.7h7.93v8.17h-7.7v8h7.94v-7.75h8.18v7.94h-7.71v7.93h4a110.27 110.27 0 0 0-9.34 18.22h-1.88zM597 885.68a50.07 50.07 0 0 1-15.64-2.57c-6.54-13.78-9.58-30.36-9.58-54.41 0-54 29.19-95.74 66.79-95.74a34.83 34.83 0 0 1 14.48 2.8c6.77 15.18 10.74 33.39 10.74 53.71-.04 55.1-28.79 96.21-66.79 96.21zm-19.42-126.57h-6.77v6.77h6.77zm-15.18-1.4h6.78v-6.77h-6.78zm.71 16.11h5.59V768h-5.59zm.47 16.11H568v-4.67h-4.43zM554 749.3h6.77v-6.77H554zm.69 16.12h5.61v-5.61h-5.61zm.47 16.11h4.67v-4.67h-4.67zm.47 16.11h3.74v-3.5h-3.74zm.7 16.12h2.33v-2.35h-2.33zm-10.51-72.86h6.78v-6.78h-6.78zm.47 16.11h5.61v-5.6h-5.61zm.71 16.12h4.43v-4.45H547zm.46 16.11H551v-3.51h-3.5zm.47 16.1h2.33V803h-2.33zm-9.58-56.5H544v-5.61h-5.61zm.23 16.11H543v-4.67h-4.45zm.47 16.11h3.51v-3.5h-3.51zm.47 15.88h2.34v-2.33h-2.34zm-8.17-8.18h2.33v-2.33h-2.33zm0-2.33v2.33h2.33v-2.33zm8.17 8.18v2.33h2.34v-2.33zm-.47-17.05v3.5h3.51v-3.5zm-.47-17.28V765H543v-4.67zm-.23-17v5.61H544v-5.61zm9.58 59.72v2.33h2.33V803zm-.47-17.28v3.51H551v-3.51zm-.46-17.04v4.45h4.43v-4.45zm-.71-17.27V757h5.61v-5.6zm-.47-17.29v6.78h6.78v-6.78zm10.51 77.29v2.35h2.33v-2.35zm-.7-17.27v3.5h3.74v-3.5zm-.47-17.28v4.67h4.67v-4.67zm-.47-17.05v5.61h5.61v-5.61zm-.69-17.28v6.77h6.77v-6.77zm9.58 42.73v4.67H568v-4.67zm-.47-17.26v5.83h5.59V768zm-.71-17v6.77h6.78V751zm8.41 8.17v6.77h6.77v-6.77zm0 0v6.77h6.77v-6.77zM562.4 751v6.77h6.78V751zm.71 17v5.83h5.59V768zm.47 17.27v4.67H568v-4.67zM554 742.53v6.77h6.77v-6.77zm.69 17.28v5.61h5.61v-5.61zm.47 17.05v4.67h4.67v-4.67zm.47 17.28v3.5h3.74v-3.5zm.7 17.27v2.35h2.33v-2.35zm-10.51-77.29v6.78h6.78v-6.78zm.47 17.29V757h5.61v-5.6zm.71 17.27v4.45h4.43v-4.45zm.46 17.05v3.51H551v-3.51zm.47 17.28v2.33h2.33V803zm-9.58-59.78v5.61H544v-5.61zm.23 17V765H543v-4.67zm.47 17.28v3.5h3.51v-3.5zm.47 17.05v2.33h2.34v-2.33zm-8.17-8.18v2.33h2.33v-2.33zm0 0v2.33h2.33v-2.33zm8.17 8.18v2.33h2.34v-2.33zm-.47-17.05v3.5h3.51v-3.5zm-.47-17.28V765H543v-4.67zm-.23-17v5.61H544v-5.61zm9.58 59.77v2.33h2.33V803zm-.47-17.28v3.51H551v-3.51zm-.46-17.04v4.45h4.43v-4.45zm-.71-17.27V757h5.61v-5.6zm-.47-17.29v6.78h6.78v-6.78zm10.51 77.29v2.35h2.33v-2.35zm-.7-17.27v3.5h3.74v-3.5zm-.47-17.28v4.67h4.67v-4.67zm-.47-17.05v5.61h5.61v-5.61zm-.69-17.28v6.77h6.77v-6.77zm9.58 42.73v4.67H568v-4.67zm-.47-17.26v5.83h5.59V768zm-.71-17v6.77h6.78V751zm8.41 8.17v6.77h6.77v-6.77zm0 0v6.77h6.77v-6.77zm-8.41-1.4h6.78V751h-6.78zm.71 16.11h5.59V768h-5.59zm.47 16.11H568v-4.67h-4.43zM554 749.3h6.77v-6.77H554zm.69 16.12h5.61v-5.61h-5.61zm.47 16.11h4.67v-4.67h-4.67zm.47 16.11h3.74v-3.5h-3.74zm.7 16.12h2.33v-2.35h-2.33zm-10.51-72.86h6.78v-6.78h-6.78zm.47 16.11h5.61v-5.6h-5.61zm.71 16.12h4.43v-4.45H547zm.46 16.11H551v-3.51h-3.5zm.47 16.1h2.33V803h-2.33zm-9.58-56.5H544v-5.61h-5.61zm.23 16.11H543v-4.67h-4.45zm.47 16.11h3.51v-3.5h-3.51zm.47 15.88h2.34v-2.33h-2.34zm-8.17-8.18h2.33v-2.33h-2.33zm65.38-103.67c-42.5 0-75.19 45.53-75.19 104.15 0 52.76 29 104.84 75.42 104.84 43.2 0 75.2-44.83 75.2-104.61 0-53.47-28.26-104.38-75.43-104.38zm25.69 34.79H625v2.8h-2.56zm-8.42-8.17h2.81v2.57H614zm-.7 15.87h4.2v.94l-4.2 1.63zm-7.47-24.27h2.56v2.79h-2.56zm-.94 15.87h4.21v4.21h-4.2zm-7.47-24H600v2.57h-2.57zm-.7 15.87h4v4h-4zm-.7 15.89h5.37v5.6H596zm-7.71-24.29h4.21v4.21h-4.21zm-.69 15.88h5.6v5.6h-5.6zm-.47 16.11h6.77v6.78h-6.77zm-.71 15.88h1.64l-1.64 2.1zm-6.3-53.94l4-1.17v3h-4zm-.7 13.78h5.37v5.37h-5.37zm-.7 15.88h6.77V733h-6.77zm-7.7-24.29h5.6v5.6h-5.6zm-.7 16.05h6.78v6.78h-6.78zm-8.17-8.4h6.77v6.77h-6.77zm9.1 71.45a150.89 150.89 0 0 0-5.6 21.25H564v3.74h1a143.36 143.36 0 0 0-1.63 22.65c0 20.32 2.1 36 6.77 49-26.39-16.11-39.93-52.31-39.93-88.26a132.24 132.24 0 0 1 .93-16.81h3.27v-3.51h-2.8c1.87-11.91 5.14-24.52 11-36h2.09V729l2.35-4h6.07v-7.69h8.16v7.93h-7.7v7.94h7.94v-7.71h7.94v8.18h-7.47v7.93h7.94v-7.7h7.93v8.17h-7.7v8h7.94v-7.75h8.18v7.94h-7.71v7.93h4a110.27 110.27 0 0 0-9.34 18.22h-1.88zM597 885.68a50.07 50.07 0 0 1-15.64-2.57c-6.54-13.78-9.58-30.36-9.58-54.41 0-54 29.19-95.74 66.79-95.74a34.83 34.83 0 0 1 14.48 2.8c6.77 15.18 10.74 33.39 10.74 53.71-.04 55.1-28.79 96.21-66.79 96.21zm-19.42-126.57h-6.77v6.77h6.77zm-15.18-1.4h6.78v-6.77h-6.78zm.71 16.11h5.59V768h-5.59zm.47 16.11H568v-4.67h-4.43zM554 749.3h6.77v-6.77H554zm.69 16.12h5.61v-5.61h-5.61zm.47 16.11h4.67v-4.67h-4.67zm.47 16.11h3.74v-3.5h-3.74zm.7 16.12h2.33v-2.35h-2.33zm-10.51-72.86h6.78v-6.78h-6.78zm.47 16.11h5.61v-5.6h-5.61zm.71 16.12h4.43v-4.45H547zm.46 16.11H551v-3.51h-3.5zm.47 16.1h2.33V803h-2.33zm-9.58-56.5H544v-5.61h-5.61zm.23 16.11H543v-4.67h-4.45zm.47 16.11h3.51v-3.5h-3.51zm.47 15.88h2.34v-2.33h-2.34zm-8.17-8.18h2.33v-2.33h-2.33zm179.34 124.47v7.94h7.93v-7.94zm8.64-7.93v7.23h7.23v-7.23zm-.24 16.34v7.71h7.71v-7.71zM728.2 881v5.83h6.07V881zm-.2 16.35v6.54h6.54v-6.54zm-.23 16.11v7.24h7v-7.24zm-.46 16.35v7.94h7.93v-7.94zm10-73.09v4.43H742v-4.43zm-.47 16.11v5.37h5.37v-5.37zm-.24 16.35v6.07h5.85v-6.07zm-.22 16.34v6.54h6.53v-6.54zm-.47 16.36v7.23h7.23v-7.23zm-.24 16.34v7.93h7.71v-7.93zm11-138.71v2.33H749v-2.33zm-.22 16.35v2.8h3v-2.8zm-.24 16.34v3.5h3.5v-3.5zm-.21 16.34v4h4v-4zm-.47 16.35v4.68h4.67v-4.68zm-.23 16.35v5.37h5.36v-5.37zm-.3 16.35v5.83h5.84v-5.83zm-.47 16.34v6.54h6.54v-6.54zm-.23 16.35v7.23h7.24v-7.23zm10.74-122.37v2.34h2.34v-2.34zm-.23 16.35v2.8h2.8v-2.8zm-.47 16.34v3.51h3.51v-3.51zm-.22 16.4v4h4.2v-4zm-.23 16.34V878h4.67v-4.7zm-.24 16.35v5.13h5.14v-5.13zm-.47 16.31v5.84h6.07V906zm10.28-89.9v2.33h2.33v-2.33zm-.46 16.34v3h3v-3zm-.24 16.34v3.5h3.5v-3.5zm-.23 16.34v4.21h4v-4.21zm-.24 16.35v4.68h4.44v-4.68zm-.47 16.34v5.38h5.37v-5.38zm9.81-73.32v2.34H774v-2.34zm-.23 16.35v2.8h2.8v-2.8zm-.24 16.34v3.51h3.5v-3.51zm-.23 16.36v4h4v-4zm0 0v4h4v-4zm3.73-16.36h-3.5v3.51h3.5zm-.46-16.34h-2.8v2.8h2.8zm-.2-16.35h-2.34v2.34H774zm-12.15 78.7h5.37v-5.38h-5.37zm4.91-21.72h-4.44v4.68h4.44zm-.23-16.35h-4v4.21h4zm-.24-16.34h-3.5v3.5h3.5zm-.29-16.34h-3v3h3zm-.24-16.35h-2.33v2.33h2.33zm-12.61 95.74h6.07V906h-6.07zm5.61-22.18h-5.14v5.13h5.14zm-.23-16.35h-4.67v4.7h4.67zm-.21-16.3h-4.2v4h4.2zm-.46-16.36h-3.51v3.51h3.51zm-.24-16.34h-2.8v2.8h2.8zm-.23-16.35h-2.34v2.34h2.34zm-13.08 129.6h7.24v-7.23h-7.24zm6.77-23.58h-6.54v6.54h6.54zm-.23-16.34H745v5.83h5.84zm-.24-16.35h-5.36v5.37h5.36zm-.46-16.35h-4.67v4.68h4.67zm-.23-16.35h-4v4h4zm-.24-16.34h-3.5v3.5h3.5zm-.23-16.34h-3v2.8h3zm-.45-16.39h-2.35v2.33H749zm-13.33 146.64h7.71v-7.93h-7.71zm7.47-24.27h-7.23v7.23h7.23zm-.23-16.36h-6.53v6.54h6.53zm-.46-16.34h-5.85v6.07h5.85zm-.24-16.35h-5.37v5.37h5.37zm-.21-16.11h-4.67v4.43H742zm-14.71 81h7.93v-7.94h-7.93zm7.47-24.29h-7v7.24h7zm-.24-16.11H728v6.54h6.54zm-.25-16.32h-6.07v5.83h6.07zm-15.18 48.34h7.71v-7.71h-7.71zm7.47-24.05h-7.23v7.23h7.23zm-15.87 15.87h7.93v-7.94h-7.93zm-114-236.08c-42.5 0-75.19 45.53-75.19 104.15 0 52.76 29 104.84 75.42 104.84 43.2 0 75.2-44.83 75.2-104.61.04-53.46-28.22-104.37-75.39-104.37zm25.69 34.79H625v2.8h-2.56zm-8.38-8.16h2.81v2.57H614zm-.7 15.87h4.2v.94l-4.2 1.63zm-7.47-24.27h2.56v2.79h-2.56zm-.94 15.87h4.21v4.21h-4.2zm-7.47-24H600v2.57h-2.57zm-.7 15.87h4v4h-4zm-.7 15.89h5.37v5.6H596zm-7.71-24.29h4.21v4.21h-4.21zm-.69 15.88h5.6v5.6h-5.6zm-.47 16.11h6.77v6.78h-6.77zm-.71 15.88h1.64l-1.64 2.1zm-6.3-53.94l4-1.17v3h-4zm-.7 13.78h5.37v5.37h-5.37zm-.7 15.88h6.77V733h-6.77zm-7.7-24.29h5.6v5.6h-5.6zm-.7 16.05h6.78v6.78h-6.78zm-8.17-8.4h6.77v6.77h-6.77zm9.1 71.45a150.89 150.89 0 0 0-5.6 21.25H564v3.74h1a143.36 143.36 0 0 0-1.63 22.65c0 20.32 2.1 36 6.77 49-26.39-16.11-39.93-52.31-39.93-88.26a132.24 132.24 0 0 1 .93-16.81h3.27v-3.51h-2.8c1.87-11.91 5.14-24.52 11-36h2.09V729l2.35-4h6.07v-7.69h8.16v7.93h-7.7v7.94h7.94v-7.71h7.94v8.18h-7.47v7.93h7.94v-7.7h7.93v8.17h-7.7v8h7.94v-7.75h8.18v7.94h-7.71v7.93h4a110.27 110.27 0 0 0-9.34 18.22h-1.88zM597 885.68a50.07 50.07 0 0 1-15.64-2.57c-6.54-13.78-9.58-30.36-9.58-54.41 0-54 29.19-95.74 66.79-95.74a34.83 34.83 0 0 1 14.48 2.8c6.77 15.18 10.74 33.39 10.74 53.71-.04 55.1-28.79 96.21-66.79 96.21zm-19.42-126.57h-6.77v6.77h6.77zm-15.18-1.4h6.78v-6.77h-6.78zm.71 16.11h5.59V768h-5.59zm.47 16.11H568v-4.67h-4.43zM554 749.3h6.77v-6.77H554zm.69 16.12h5.61v-5.61h-5.61zm.47 16.11h4.67v-4.67h-4.67zm.47 16.11h3.74v-3.5h-3.74zm.7 16.12h2.33v-2.35h-2.33zm-10.51-72.86h6.78v-6.78h-6.78zm.47 16.11h5.61v-5.6h-5.61zm.71 16.12h4.43v-4.45H547zm.46 16.11H551v-3.51h-3.5zm.47 16.1h2.33V803h-2.33zm-9.58-56.5H544v-5.61h-5.61zm.23 16.11H543v-4.67h-4.45zm.47 16.11h3.51v-3.5h-3.51zm.47 15.88h2.34v-2.33h-2.34zm-8.17-8.18h2.33v-2.33h-2.33zM781.44 773c-8.25-28.77-22.46-53.68-42-73.24l-40.63-40.4c-26.39-28-61.65-44.6-101.82-44.6-85.23 0-149 74.72-149 174.67a214.36 214.36 0 0 0 4.68 45.06q1.71 8 4 15.7a186.43 186.43 0 0 0 31.47 61.37q4.05 5.19 8.41 10 2.63 2.89 5.36 5.64l40.4 40.63A146.81 146.81 0 0 0 554 978.38c24.43 19.79 53.59 30.12 86.88 30.12a136.68 136.68 0 0 0 86-30.12c25.18-20 44.35-49 54.62-83.49a207.2 207.2 0 0 0 8.4-59.19 226.73 226.73 0 0 0-8.46-62.7zM496.56 908.93q-4.41-5.26-8.41-11a167.32 167.32 0 0 1-18.3-34.53q-3.33-8.52-5.88-17.56a208.69 208.69 0 0 1-7.58-56.38c0-95.51 60-166.26 140.57-166.26 84.3 0 140.35 75.42 140.35 166 0 95.74-60 166.73-140.58 166.73-41.3.07-75.73-17.93-100.17-47zM694.8 961.8v-6.54h6.54v6.54zm6.31 10.51v5.83h-5.84v-5.83zm-6.54-26.85v-7h7.24v7zm-.46-16.11v-4.68l3.26-3.27h4.68v8zm-7.47 24.28v-6.54h6.3v6.54zm6.07 10.5v5.61h-5.85v-5.61zm-6.54-26.85v-5.36l2.09-1.88h5.14v7.24zm-7.48 24.28v-5.83h5.6v5.83zm5.38 11.21v5.14h-5.14v-5.14zm-5.85-27.55v-6.54h6.54v6.54zm-7.93 7.94v-5.84h5.84v5.84zm5.37 11.21v5.14h-5.14v-5.14zm-13.31-3.27V956h5.14v5.13zM667 973v4.44h-4.43V973zm-13.08-20.08v-.47l5.14-2.57v3zm4.67 11.67V969h-4.2v-4.4zM646 960.87v-4.44h4.43v4.44zm4 12.61v3.73h-3.75v-3.73zm-8.18-8.4v3.73h-3.74v-3.73zm-10.75-4.68l2.35-.7v.7zm2.11 13.31v3h-3v-3zm-8.41-8.41v3h-3v-3zm-8.64 8.87v2.35h-2.33v-2.35zm-8.4-8.4v2.33h-2.34v-2.33zm95-11.91v-7.24H710v7.24zm7 9.81v6.53h-6.53v-6.53zm-7.24-26.16v-7.7h7.94v7.7zm8.41 8.42V938h7.7v7.95zm7.47 9.1v7.24h-7.24V955zm-94.1 29.65H622v-2.33h2.34zm8.4 8.41h-2.33v-2.34h2.33zm8.4 7h-2.33v-.93h2.33zm.24-14.94h-3v-3h3zm8.41 8.16h-3v-3h3zm8.17 5.61l-2.81.47v-.7h2.81zm.47-13.54h-3.74v-3.74h3.74zm8.4 8.4h-3.73v-3.73h3.73zm8.64-7.94H671v-4.43h4.43zm8.18 7l-3.25 1.16h-1.16v-4.44h4.43zm8.64-6.77h-4.91V981h4.91zm11.2-2.1v-3.28h5.61zm8.18-5.61v-6.3h6.3v2.56l-5.37 3.74zm7.94-7.94v-7h7.24v4l-3.5 3zm7.46-16.09h-7.94v-7.94H727zm8.41 4.9l-3.27 3.28h-4.68v-7.71h8zm46-124.23v.7c0 4.68-.24 9.11-.47 13.55h-1.14v2.8h.94a194.25 194.25 0 0 1-6.54 37.83h-3.73v4.67h2.33a181.85 181.85 0 0 1-7.47 19.62h-3.74V920h1.17l-3.27 6.31v-4H753v6.3h5.13a134.23 134.23 0 0 1-11.9 18h-2.11v2.81l-4.43 5.13h-4.2v-8.41h-8.17V938h-8.41v-8.41h-8.41v-8.4h-8.17V916l2.8-3.26h5.14v-6.54l1.4-2.11h6.54v-7.24h-1.64l3-4.9v3.5h6.54v-6.54h-4.68a159.17 159.17 0 0 0 9.11-19.14h3.28v-5.14h-1.18a185.93 185.93 0 0 0 6.54-20.31h2.33v-4.21h-1.39a221.32 221.32 0 0 0 5.88-50.64c0-30.36-6.78-66.32-22.89-94.34 39.47 35.49 57.68 81.73 58.38 137.54H780V835zm-10.51 42.5h4v-4h-4zm3.73-20.32h-3.5v3.51h3.5zm-.46-16.34h-2.8v2.8h2.8zm-.17-16.35h-2.34v2.34H774zm-12.15 78.7h5.37v-5.38h-5.37zm4.91-21.72h-4.44v4.68h4.44zm-.23-16.35h-4v4.21h4zm-.24-16.34h-3.5v3.5h3.5zm-.29-16.34h-3v3h3zm-.24-16.35h-2.33v2.33h2.33zm-12.61 95.74h6.07V906h-6.07zm5.61-22.18h-5.14v5.13h5.14zm-.23-16.35h-4.67v4.7h4.67zm-.21-16.3h-4.2v4h4.2zm-.46-16.36h-3.51v3.51h3.51zm-.24-16.34h-2.8v2.8h2.8zm-.23-16.35h-2.34v2.34h2.34zm-13.08 129.6h7.24v-7.23h-7.24zm6.77-23.58h-6.54v6.54h6.54zm-.23-16.34H745v5.83h5.84zm-.24-16.35h-5.36v5.37h5.36zm-.46-16.35h-4.67v4.68h4.67zm-.23-16.35h-4v4h4zm-.24-16.34h-3.5v3.5h3.5zm-.23-16.34h-3v2.8h3zm-.45-16.39h-2.35v2.33H749zm-13.33 146.64h7.71v-7.93h-7.71zm7.47-24.27h-7.23v7.23h7.23zm-.23-16.36h-6.53v6.54h6.53zm-.46-16.34h-5.85v6.07h5.85zm-.24-16.35h-5.37v5.37h5.37zm-.21-16.11h-4.67v4.43H742zm-14.71 81h7.93v-7.94h-7.93zm7.47-24.29h-7v7.24h7zm-.24-16.11H728v6.54h6.54zm-.25-16.32h-6.07v5.83h6.07zm-15.18 48.34h7.71v-7.71h-7.71zm7.47-24.05h-7.23v7.23h7.23zm-15.87 15.87h7.93v-7.94h-7.93zm-38.53-131.7c0-53.48-28.26-104.38-75.43-104.38-42.5 0-75.19 45.53-75.19 104.15 0 52.76 29 104.84 75.42 104.84 43.2.01 75.2-44.82 75.2-104.6zm-49.74-69.59H625v2.8h-2.56zm-8.42-8.16h2.81v2.57H614zm-.7 15.87h4.2v.94l-4.2 1.63zm-7.47-24.27h2.56v2.79h-2.56zm-.94 15.87h4.21v4.21h-4.2zm-7.47-24H600v2.57h-2.57zm-.7 15.87h4v4h-4zm-.7 15.89h5.37v5.6H596zm-7.71-24.29h4.21v4.21h-4.21zm-.69 15.88h5.6v5.6h-5.6zm-.47 16.11h6.77v6.78h-6.77zm-.71 15.88h1.64l-1.64 2.1zm-6.3-53.94l4-1.17v3h-4zm-.7 13.78h5.37v5.37h-5.37zm-.7 15.88h6.77V733h-6.77zm-7.7-24.29h5.6v5.6h-5.6zm-.7 16.05h6.78v6.78h-6.78zm-8.17-8.4h6.77v6.77h-6.77zm9.1 71.45a150.89 150.89 0 0 0-5.6 21.25H564v3.74h1a143.36 143.36 0 0 0-1.63 22.65c0 20.32 2.1 36 6.77 49-26.39-16.11-39.93-52.31-39.93-88.26a132.24 132.24 0 0 1 .93-16.81h3.27v-3.51h-2.8c1.87-11.91 5.14-24.52 11-36h2.09V729l2.35-4h6.07v-7.69h8.16v7.93h-7.7v7.94h7.94v-7.71h7.94v8.18h-7.47v7.93h7.94v-7.7h7.93v8.17h-7.7v8h7.94v-7.75h8.18v7.94h-7.71v7.93h4a110.27 110.27 0 0 0-9.34 18.22h-1.88zm.47 47.64c0-54 29.19-95.74 66.79-95.74a34.83 34.83 0 0 1 14.48 2.8c6.77 15.18 10.74 33.39 10.74 53.71 0 55.1-28.73 96.21-66.79 96.21a50.07 50.07 0 0 1-15.64-2.57c-6.54-13.77-9.58-30.35-9.58-54.4zm5.84-69.59h-6.77v6.77h6.77zm-15.18-1.4h6.78v-6.77h-6.78zm.71 16.11h5.59V768h-5.59zm.47 16.11H568v-4.67h-4.43zM554 749.3h6.77v-6.77H554zm.69 16.12h5.61v-5.61h-5.61zm.47 16.11h4.67v-4.67h-4.67zm.47 16.11h3.74v-3.5h-3.74zm.7 16.12h2.33v-2.35h-2.33zm-10.51-72.86h6.78v-6.78h-6.78zm.47 16.11h5.61v-5.6h-5.61zm.71 16.12h4.43v-4.45H547zm.46 16.11H551v-3.51h-3.5zm.47 16.1h2.33V803h-2.33zm-9.58-56.5H544v-5.61h-5.61zm.23 16.11H543v-4.67h-4.45zm.47 16.11h3.51v-3.5h-3.51zm.47 15.88h2.34v-2.33h-2.34zm-8.17-8.18h2.33v-2.33h-2.33zm0-2.33v2.33h2.33v-2.33zm8.17 8.18v2.33h2.34v-2.33zm-.47-17.05v3.5h3.51v-3.5zm-.47-17.28V765H543v-4.67zm-.23-17v5.61H544v-5.61zm9.58 59.72v2.33h2.33V803zm-.47-17.28v3.51H551v-3.51zm-.46-17.04v4.45h4.43v-4.45zm-.71-17.27V757h5.61v-5.6zm-.47-17.29v6.78h6.78v-6.78zm10.51 77.29v2.35h2.33v-2.35zm-.7-17.27v3.5h3.74v-3.5zm-.47-17.28v4.67h4.67v-4.67zm-.47-17.05v5.61h5.61v-5.61zm-.69-17.28v6.77h6.77v-6.77zm9.58 42.73v4.67H568v-4.67zm-.47-17.26v5.83h5.59V768zm-.71-17v6.77h6.78V751zm8.41 8.17v6.77h6.77v-6.77zm0 0v6.77h6.77v-6.77zm-8.41-1.4h6.78V751h-6.78zm.71 16.11h5.59V768h-5.59zm.47 16.11H568v-4.67h-4.43zM554 749.3h6.77v-6.77H554zm.69 16.12h5.61v-5.61h-5.61zm.47 16.11h4.67v-4.67h-4.67zm.47 16.11h3.74v-3.5h-3.74zm.7 16.12h2.33v-2.35h-2.33zm-10.51-72.86h6.78v-6.78h-6.78zm.47 16.11h5.61v-5.6h-5.61zm.71 16.12h4.43v-4.45H547zm.46 16.11H551v-3.51h-3.5zm.47 16.1h2.33V803h-2.33zm-9.58-56.5H544v-5.61h-5.61zm.23 16.11H543v-4.67h-4.45zm.47 16.11h3.51v-3.5h-3.51zm.47 15.88h2.34v-2.33h-2.34zm-8.17-8.18h2.33v-2.33h-2.33zm65.38-103.67c-42.5 0-75.19 45.53-75.19 104.15 0 52.76 29 104.84 75.42 104.84 43.2 0 75.2-44.83 75.2-104.61 0-53.47-28.26-104.38-75.43-104.38zm25.69 34.79H625v2.8h-2.56zm-8.42-8.17h2.81v2.57H614zm-.7 15.87h4.2v.94l-4.2 1.63zm-7.47-24.27h2.56v2.79h-2.56zm-.94 15.87h4.21v4.21h-4.2zm-7.47-24H600v2.57h-2.57zm-.7 15.87h4v4h-4zm-.7 15.89h5.37v5.6H596zm-7.71-24.29h4.21v4.21h-4.21zm-.69 15.88h5.6v5.6h-5.6zm-.47 16.11h6.77v6.78h-6.77zm-.71 15.88h1.64l-1.64 2.1zm-6.3-53.94l4-1.17v3h-4zm-.7 13.78h5.37v5.37h-5.37zm-.7 15.88h6.77V733h-6.77zm-7.7-24.29h5.6v5.6h-5.6zm-.7 16.05h6.78v6.78h-6.78zm-8.17-8.4h6.77v6.77h-6.77zm9.1 71.45a150.89 150.89 0 0 0-5.6 21.25H564v3.74h1a143.36 143.36 0 0 0-1.63 22.65c0 20.32 2.1 36 6.77 49-26.39-16.11-39.93-52.31-39.93-88.26a132.24 132.24 0 0 1 .93-16.81h3.27v-3.51h-2.8c1.87-11.91 5.14-24.52 11-36h2.09V729l2.35-4h6.07v-7.69h8.16v7.93h-7.7v7.94h7.94v-7.71h7.94v8.18h-7.47v7.93h7.94v-7.7h7.93v8.17h-7.7v8h7.94v-7.75h8.18v7.94h-7.71v7.93h4a110.27 110.27 0 0 0-9.34 18.22h-1.88zM597 885.68a50.07 50.07 0 0 1-15.64-2.57c-6.54-13.78-9.58-30.36-9.58-54.41 0-54 29.19-95.74 66.79-95.74a34.83 34.83 0 0 1 14.48 2.8c6.77 15.18 10.74 33.39 10.74 53.71-.04 55.1-28.79 96.21-66.79 96.21zm-19.42-126.57h-6.77v6.77h6.77zm-15.18-1.4h6.78v-6.77h-6.78zm.71 16.11h5.59V768h-5.59zm.47 16.11H568v-4.67h-4.43zM554 749.3h6.77v-6.77H554zm.69 16.12h5.61v-5.61h-5.61zm.47 16.11h4.67v-4.67h-4.67zm.47 16.11h3.74v-3.5h-3.74zm.7 16.12h2.33v-2.35h-2.33zm-10.51-72.86h6.78v-6.78h-6.78zm.47 16.11h5.61v-5.6h-5.61zm.71 16.12h4.43v-4.45H547zm.46 16.11H551v-3.51h-3.5zm.47 16.1h2.33V803h-2.33zm-9.58-56.5H544v-5.61h-5.61zm.23 16.11H543v-4.67h-4.45zm.47 16.11h3.51v-3.5h-3.51zm.47 15.88h2.34v-2.33h-2.34zm-8.17-8.18h2.33v-2.33h-2.33zm179.34 124.47v7.94h7.93v-7.94zm8.64-7.93v7.23h7.23v-7.23zm-.24 16.34v7.71h7.71v-7.71zM728.2 881v5.83h6.07V881zm-.2 16.35v6.54h6.54v-6.54zm-.23 16.11v7.24h7v-7.24zm-.46 16.35v7.94h7.93v-7.94zm10-73.09v4.43H742v-4.43zm-.47 16.11v5.37h5.37v-5.37zm-.24 16.35v6.07h5.85v-6.07zm-.22 16.34v6.54h6.53v-6.54zm-.47 16.36v7.23h7.23v-7.23zm-.24 16.34v7.93h7.71v-7.93zm11-138.71v2.33H749v-2.33zm-.22 16.35v2.8h3v-2.8zm-.24 16.34v3.5h3.5v-3.5zm-.21 16.34v4h4v-4zm-.47 16.35v4.68h4.67v-4.68zm-.23 16.35v5.37h5.36v-5.37zm-.3 16.35v5.83h5.84v-5.83zm-.47 16.34v6.54h6.54v-6.54zm-.23 16.35v7.23h7.24v-7.23zm10.74-122.37v2.34h2.34v-2.34zm-.23 16.35v2.8h2.8v-2.8zm-.47 16.34v3.51h3.51v-3.51zm-.22 16.4v4h4.2v-4zm-.23 16.34V878h4.67v-4.7zm-.24 16.35v5.13h5.14v-5.13zm-.47 16.31v5.84h6.07V906zm10.28-89.9v2.33h2.33v-2.33zm-.46 16.34v3h3v-3zm-.24 16.34v3.5h3.5v-3.5zm-.23 16.34v4.21h4v-4.21zm-.24 16.35v4.68h4.44v-4.68zm-.47 16.34v5.38h5.37v-5.38zm9.81-73.32v2.34H774v-2.34zm-.23 16.35v2.8h2.8v-2.8zm-.24 16.34v3.51h3.5v-3.51zm-.23 16.36v4h4v-4zm0 0v4h4v-4zm.23-16.36v3.51h3.5v-3.51zm.24-16.34v2.8h2.8v-2.8zm.23-16.35v2.34H774v-2.34zm-9.81 73.32v5.38h5.37v-5.38zm.47-16.34v4.68h4.44v-4.68zm.24-16.35v4.21h4v-4.21zm.23-16.34v3.5h3.5v-3.5zm.24-16.34v3h3v-3zm.46-16.35v2.33h2.33v-2.33zM753.18 906v5.84h6.07V906zm.47-16.34v5.13h5.14v-5.13zm.24-16.35V878h4.67v-4.7zm.23-16.34v4h4.2v-4zm.23-16.36v3.51h3.51v-3.52zm.47-16.34v2.8h2.8v-2.8zm.23-16.35v2.34h2.34v-2.34zm-10.74 122.36v7.23h7.24v-7.23zm.23-16.35v6.54h6.54v-6.54zm.47-16.34v5.83h5.84v-5.83zm.24-16.35v5.37h5.36v-5.37zm.23-16.35v4.68h4.67v-4.68zm.47-16.35v4h4v-4zm.23-16.34v3.5h3.5v-3.5zm.24-16.34v2.8h3v-2.8zm.22-16.35v2.33H749v-2.33zm-11 138.71v7.93h7.71v-7.93zm.24-16.34v7.23h7.23v-7.23zm.47-16.36v6.54h6.53v-6.54zm.22-16.34v6.07h5.85v-6.07zm.24-16.35v5.37h5.37v-5.37zm.47-16.11v4.43H742v-4.43zm-10 73.09v7.94h7.93v-7.94zm.46-16.35v7.24h7v-7.24zm.23-16.11v6.54h6.54v-6.54zm.23-16.35v5.83h6.07V881zm-9.11 40.63v7.71h7.71v-7.71zm.24-16.34v7.23h7.23v-7.22zm-8.64 7.93v7.94h7.93v-7.94zM531.35 786.43v2.33h2.33v-2.33zm8.17 8.18v2.33h2.34v-2.33zm-.47-17.05v3.5h3.51v-3.5zm-.47-17.28V765H543v-4.67zm-.23-17v5.61H544v-5.61zm9.58 59.72v2.33h2.33V803zm-.47-17.28v3.51H551v-3.51zm-.46-17.04v4.45h4.43v-4.45zm-.71-17.27V757h5.61v-5.6zm-.47-17.29v6.78h6.78v-6.78zm10.51 77.29v2.35h2.33v-2.35zm-.7-17.27v3.5h3.74v-3.5zm-.47-17.28v4.67h4.67v-4.67zm-.47-17.05v5.61h5.61v-5.61zm-.69-17.28v6.77h6.77v-6.77zm9.58 42.73v4.67H568v-4.67zm-.47-17.26v5.83h5.59V768zm-.71-17v6.77h6.78V751zm8.41 8.17v6.77h6.77v-6.77zm0 0v6.77h6.77v-6.77zm-8.41-1.4h6.78V751h-6.78zm.71 16.11h5.59V768h-5.59zm.47 16.11H568v-4.67h-4.43zM554 749.3h6.77v-6.77H554zm.69 16.12h5.61v-5.61h-5.61zm.47 16.11h4.67v-4.67h-4.67zm.47 16.11h3.74v-3.5h-3.74zm.7 16.12h2.33v-2.35h-2.33zm-10.51-72.86h6.78v-6.78h-6.78zm.47 16.11h5.61v-5.6h-5.61zm.71 16.12h4.43v-4.45H547zm.46 16.11H551v-3.51h-3.5zm.47 16.1h2.33V803h-2.33zm-9.58-56.5H544v-5.61h-5.61zm.23 16.11H543v-4.67h-4.45zm.47 16.11h3.51v-3.5h-3.51zm.47 15.88h2.34v-2.33h-2.34zm-8.17-8.18h2.33v-2.33h-2.33zm65.38-103.67c-42.5 0-75.19 45.53-75.19 104.15 0 52.76 29 104.84 75.42 104.84 43.2 0 75.2-44.83 75.2-104.61 0-53.47-28.26-104.38-75.43-104.38zm25.69 34.79H625v2.8h-2.56zm-8.42-8.17h2.81v2.57H614zm-.7 15.87h4.2v.94l-4.2 1.63zm-7.47-24.27h2.56v2.79h-2.56zm-.94 15.87h4.21v4.21h-4.2zm-7.47-24H600v2.57h-2.57zm-.7 15.87h4v4h-4zm-.7 15.89h5.37v5.6H596zm-7.71-24.29h4.21v4.21h-4.21zm-.69 15.88h5.6v5.6h-5.6zm-.47 16.11h6.77v6.78h-6.77zm-.71 15.88h1.64l-1.64 2.1zm-6.3-53.94l4-1.17v3h-4zm-.7 13.78h5.37v5.37h-5.37zm-.7 15.88h6.77V733h-6.77zm-7.7-24.29h5.6v5.6h-5.6zm-.7 16.05h6.78v6.78h-6.78zm-8.17-8.4h6.77v6.77h-6.77zm9.1 71.45a150.89 150.89 0 0 0-5.6 21.25H564v3.74h1a143.36 143.36 0 0 0-1.63 22.65c0 20.32 2.1 36 6.77 49-26.39-16.11-39.93-52.31-39.93-88.26a132.24 132.24 0 0 1 .93-16.81h3.27v-3.51h-2.8c1.87-11.91 5.14-24.52 11-36h2.09V729l2.35-4h6.07v-7.69h8.16v7.93h-7.7v7.94h7.94v-7.71h7.94v8.18h-7.47v7.93h7.94v-7.7h7.93v8.17h-7.7v8h7.94v-7.75h8.18v7.94h-7.71v7.93h4a110.27 110.27 0 0 0-9.34 18.22h-1.88zM597 885.68a50.07 50.07 0 0 1-15.64-2.57c-6.54-13.78-9.58-30.36-9.58-54.41 0-54 29.19-95.74 66.79-95.74a34.83 34.83 0 0 1 14.48 2.8c6.77 15.18 10.74 33.39 10.74 53.71-.04 55.1-28.79 96.21-66.79 96.21zm-19.42-126.57h-6.77v6.77h6.77zm-15.18-1.4h6.78v-6.77h-6.78zm.71 16.11h5.59V768h-5.59zm.47 16.11H568v-4.67h-4.43zM554 749.3h6.77v-6.77H554zm.69 16.12h5.61v-5.61h-5.61zm.47 16.11h4.67v-4.67h-4.67zm.47 16.11h3.74v-3.5h-3.74zm.7 16.12h2.33v-2.35h-2.33zm-10.51-72.86h6.78v-6.78h-6.78zm.47 16.11h5.61v-5.6h-5.61zm.71 16.12h4.43v-4.45H547zm.46 16.11H551v-3.51h-3.5zm.47 16.1h2.33V803h-2.33zm-9.58-56.5H544v-5.61h-5.61zm.23 16.11H543v-4.67h-4.45zm.47 16.11h3.51v-3.5h-3.51zm.47 15.88h2.34v-2.33h-2.34zm-8.17-8.18h2.33v-2.33h-2.33zm0-2.33v2.33h2.33v-2.33zm8.17 8.18v2.33h2.34v-2.33zm-.47-17.05v3.5h3.51v-3.5zm-.47-17.28V765H543v-4.67zm-.23-17v5.61H544v-5.61zm9.58 59.72v2.33h2.33V803zm-.47-17.28v3.51H551v-3.51zm-.46-17.04v4.45h4.43v-4.45zm-.71-17.27V757h5.61v-5.6zm-.47-17.29v6.78h6.78v-6.78zm10.51 77.29v2.35h2.33v-2.35zm-.7-17.27v3.5h3.74v-3.5zm-.47-17.28v4.67h4.67v-4.67zm-.47-17.05v5.61h5.61v-5.61zm-.69-17.28v6.77h6.77v-6.77zm9.58 42.73v4.67H568v-4.67zm-.47-17.26v5.83h5.59V768zm-.71-17v6.77h6.78V751zm8.41 8.17v6.77h6.77v-6.77zm0 0v6.77h6.77v-6.77zM562.4 751v6.77h6.78V751zm.71 17v5.83h5.59V768zm.47 17.27v4.67H568v-4.67zM554 742.53v6.77h6.77v-6.77zm.69 17.28v5.61h5.61v-5.61zm.47 17.05v4.67h4.67v-4.67zm.47 17.28v3.5h3.74v-3.5zm.7 17.27v2.35h2.33v-2.35zm-10.51-77.29v6.78h6.78v-6.78zm.47 17.29V757h5.61v-5.6zm.71 17.27v4.45h4.43v-4.45zm.46 17.05v3.51H551v-3.51zm.47 17.28v2.33h2.33V803zm-9.58-59.78v5.61H544v-5.61zm.23 17V765H543v-4.67zm.47 17.28v3.5h3.51v-3.5zm.47 17.05v2.33h2.34v-2.33zm-8.17-8.18v2.33h2.33v-2.33zm0 0v2.33h2.33v-2.33zm8.17 8.18v2.33h2.34v-2.33zm-.47-17.05v3.5h3.51v-3.5zm-.47-17.28V765H543v-4.67zm-.23-17v5.61H544v-5.61zm9.58 59.77v2.33h2.33V803zm-.47-17.28v3.51H551v-3.51zm-.46-17.04v4.45h4.43v-4.45zm-.71-17.27V757h5.61v-5.6zm-.47-17.29v6.78h6.78v-6.78zm10.51 77.29v2.35h2.33v-2.35zm-.7-17.27v3.5h3.74v-3.5zm-.47-17.28v4.67h4.67v-4.67zm-.47-17.05v5.61h5.61v-5.61zm-.69-17.28v6.77h6.77v-6.77zm9.58 42.73v4.67H568v-4.67zm-.47-17.26v5.83h5.59V768zm-.71-17v6.77h6.78V751zm8.41 8.17v6.77h6.77v-6.77zm0 0v6.77h6.77v-6.77zM562.4 751v6.77h6.78V751zm.71 17v5.83h5.59V768zm.47 17.27v4.67H568v-4.67zM554 742.53v6.77h6.77v-6.77zm.69 17.28v5.61h5.61v-5.61zm.47 17.05v4.67h4.67v-4.67zm.47 17.28v3.5h3.74v-3.5zm.7 17.27v2.35h2.33v-2.35zm-10.51-77.29v6.78h6.78v-6.78zm.47 17.29V757h5.61v-5.6zm.71 17.27v4.45h4.43v-4.45zm.46 17.05v3.51H551v-3.51zm.47 17.28v2.33h2.33V803zm-9.58-59.78v5.61H544v-5.61zm.23 17V765H543v-4.67zm.47 17.28v3.5h3.51v-3.5zm.47 17.05v2.33h2.34v-2.33zm-8.17-8.18v2.33h2.33v-2.33zm0 0v2.33h2.33v-2.33zm8.17 8.18v2.33h2.34v-2.33zm-.47-17.05v3.5h3.51v-3.5zm-.47-17.28V765H543v-4.67zm-.23-17v5.61H544v-5.61zm9.58 59.77v2.33h2.33V803zm-.47-17.28v3.51H551v-3.51zm-.46-17.04v4.45h4.43v-4.45zm-.71-17.27V757h5.61v-5.6zm-.47-17.29v6.78h6.78v-6.78zm10.51 77.29v2.35h2.33v-2.35zm-.7-17.27v3.5h3.74v-3.5zm-.47-17.28v4.67h4.67v-4.67zm-.47-17.05v5.61h5.61v-5.61zm-.69-17.28v6.77h6.77v-6.77zm9.58 42.73v4.67H568v-4.67zm-.47-17.26v5.83h5.59V768zm-.71-17v6.77h6.78V751zm8.41 8.17v6.77h6.77v-6.77zm0 0v6.77h6.77v-6.77zm-8.41-1.4h6.78V751h-6.78zm.71 16.11h5.59V768h-5.59zm.47 16.11H568v-4.67h-4.43zM554 749.3h6.77v-6.77H554zm.69 16.12h5.61v-5.61h-5.61zm.47 16.11h4.67v-4.67h-4.67zm.47 16.11h3.74v-3.5h-3.74zm.7 16.12h2.33v-2.35h-2.33zm-10.51-72.86h6.78v-6.78h-6.78zm.47 16.11h5.61v-5.6h-5.61zm.71 16.12h4.43v-4.45H547zm.46 16.11H551v-3.51h-3.5zm.47 16.1h2.33V803h-2.33zm-9.58-56.5H544v-5.61h-5.61zm.23 16.11H543v-4.67h-4.45zm.47 16.11h3.51v-3.5h-3.51zm.47 15.88h2.34v-2.33h-2.34zm-8.17-8.18h2.33v-2.33h-2.33zm65.38-103.67c-42.5 0-75.19 45.53-75.19 104.15 0 52.76 29 104.84 75.42 104.84 43.2 0 75.2-44.83 75.2-104.61 0-53.47-28.26-104.38-75.43-104.38zm25.69 34.79H625v2.8h-2.56zm-8.42-8.17h2.81v2.57H614zm-.7 15.87h4.2v.94l-4.2 1.63zm-7.47-24.27h2.56v2.79h-2.56zm-.94 15.87h4.21v4.21h-4.2zm-7.47-24H600v2.57h-2.57zm-.7 15.87h4v4h-4zm-.7 15.89h5.37v5.6H596zm-7.71-24.29h4.21v4.21h-4.21zm-.69 15.88h5.6v5.6h-5.6zm-.47 16.11h6.77v6.78h-6.77zm-.71 15.88h1.64l-1.64 2.1zm-6.3-53.94l4-1.17v3h-4zm-.7 13.78h5.37v5.37h-5.37zm-.7 15.88h6.77V733h-6.77zm-7.7-24.29h5.6v5.6h-5.6zm-.7 16.05h6.78v6.78h-6.78zm-8.17-8.4h6.77v6.77h-6.77zm9.1 71.45a150.89 150.89 0 0 0-5.6 21.25H564v3.74h1a143.36 143.36 0 0 0-1.63 22.65c0 20.32 2.1 36 6.77 49-26.39-16.11-39.93-52.31-39.93-88.26a132.24 132.24 0 0 1 .93-16.81h3.27v-3.51h-2.8c1.87-11.91 5.14-24.52 11-36h2.09V729l2.35-4h6.07v-7.69h8.16v7.93h-7.7v7.94h7.94v-7.71h7.94v8.18h-7.47v7.93h7.94v-7.7h7.93v8.17h-7.7v8h7.94v-7.75h8.18v7.94h-7.71v7.93h4a110.27 110.27 0 0 0-9.34 18.22h-1.88zM597 885.68a50.07 50.07 0 0 1-15.64-2.57c-6.54-13.78-9.58-30.36-9.58-54.41 0-54 29.19-95.74 66.79-95.74a34.83 34.83 0 0 1 14.48 2.8c6.77 15.18 10.74 33.39 10.74 53.71-.04 55.1-28.79 96.21-66.79 96.21zm-19.42-126.57h-6.77v6.77h6.77zm-15.18-1.4h6.78v-6.77h-6.78zm.71 16.11h5.59V768h-5.59zm.47 16.11H568v-4.67h-4.43zM554 749.3h6.77v-6.77H554zm.69 16.12h5.61v-5.61h-5.61zm.47 16.11h4.67v-4.67h-4.67zm.47 16.11h3.74v-3.5h-3.74zm.7 16.12h2.33v-2.35h-2.33zm-10.51-72.86h6.78v-6.78h-6.78zm.47 16.11h5.61v-5.6h-5.61zm.71 16.12h4.43v-4.45H547zm.46 16.11H551v-3.51h-3.5zm.47 16.1h2.33V803h-2.33zm-9.58-56.5H544v-5.61h-5.61zm.23 16.11H543v-4.67h-4.45zm.47 16.11h3.51v-3.5h-3.51zm.47 15.88h2.34v-2.33h-2.34zm-8.17-8.18h2.33v-2.33h-2.33zm0-2.33v2.33h2.33v-2.33zm8.17 8.18v2.33h2.34v-2.33zm-.47-17.05v3.5h3.51v-3.5zm-.47-17.28V765H543v-4.67zm-.23-17v5.61H544v-5.61zm9.58 59.72v2.33h2.33V803zm-.47-17.28v3.51H551v-3.51zm-.46-17.04v4.45h4.43v-4.45zm-.71-17.27V757h5.61v-5.6zm-.47-17.29v6.78h6.78v-6.78zm10.51 77.29v2.35h2.33v-2.35zm-.7-17.27v3.5h3.74v-3.5zm-.47-17.28v4.67h4.67v-4.67zm-.47-17.05v5.61h5.61v-5.61zm-.69-17.28v6.77h6.77v-6.77zm9.58 42.73v4.67H568v-4.67zm-.47-17.26v5.83h5.59V768zm-.71-17v6.77h6.78V751zm8.41 8.17v6.77h6.77v-6.77zm0 0v6.77h6.77v-6.77zM562.4 751v6.77h6.78V751zm.71 17v5.83h5.59V768zm.47 17.27v4.67H568v-4.67zM554 742.53v6.77h6.77v-6.77zm.69 17.28v5.61h5.61v-5.61zm.47 17.05v4.67h4.67v-4.67zm.47 17.28v3.5h3.74v-3.5zm.7 17.27v2.35h2.33v-2.35zm-10.51-77.29v6.78h6.78v-6.78zm.47 17.29V757h5.61v-5.6zm.71 17.27v4.45h4.43v-4.45zm.46 17.05v3.51H551v-3.51zm.47 17.28v2.33h2.33V803zm-9.58-59.78v5.61H544v-5.61zm.23 17V765H543v-4.67zm.47 17.28v3.5h3.51v-3.5zm.47 17.05v2.33h2.34v-2.33zm-8.17-8.18v2.33h2.33v-2.33zm0 0v2.33h2.33v-2.33zm8.17 8.18v2.33h2.34v-2.33zm-.47-17.05v3.5h3.51v-3.5zm-.47-17.28V765H543v-4.67zm-.23-17v5.61H544v-5.61zm9.58 59.77v2.33h2.33V803zm-.47-17.28v3.51H551v-3.51zm-.46-17.04v4.45h4.43v-4.45zm-.71-17.27V757h5.61v-5.6zm-.47-17.29v6.78h6.78v-6.78zm10.51 77.29v2.35h2.33v-2.35zm-.7-17.27v3.5h3.74v-3.5zm-.47-17.28v4.67h4.67v-4.67zm-.47-17.05v5.61h5.61v-5.61zm-.69-17.28v6.77h6.77v-6.77zm9.58 42.73v4.67H568v-4.67zm-.47-17.26v5.83h5.59V768zm-.71-17v6.77h6.78V751zm8.41 8.17v6.77h6.77v-6.77zm0 0v6.77h6.77v-6.77zM562.4 751v6.77h6.78V751zm.71 17v5.83h5.59V768zm.47 17.27v4.67H568v-4.67zM554 742.53v6.77h6.77v-6.77zm.69 17.28v5.61h5.61v-5.61zm.47 17.05v4.67h4.67v-4.67zm.47 17.28v3.5h3.74v-3.5zm.7 17.27v2.35h2.33v-2.35zm-10.51-77.29v6.78h6.78v-6.78zm.47 17.29V757h5.61v-5.6zm.71 17.27v4.45h4.43v-4.45zm.46 17.05v3.51H551v-3.51zm.47 17.28v2.33h2.33V803zm-9.58-59.78v5.61H544v-5.61zm.23 17V765H543v-4.67zm.47 17.28v3.5h3.51v-3.5zm.47 17.05v2.33h2.34v-2.33zm-8.17-8.18v2.33h2.33v-2.33zm0 0v2.33h2.33v-2.33zm8.17 8.18v2.33h2.34v-2.33zm-.47-17.05v3.5h3.51v-3.5zm-.47-17.28V765H543v-4.67zm-.23-17v5.61H544v-5.61zm9.58 59.77v2.33h2.33V803zm-.47-17.28v3.51H551v-3.51zm-.46-17.04v4.45h4.43v-4.45zm-.71-17.27V757h5.61v-5.6zm-.47-17.29v6.78h6.78v-6.78zm10.51 77.29v2.35h2.33v-2.35zm-.7-17.27v3.5h3.74v-3.5zm-.47-17.28v4.67h4.67v-4.67zm-.47-17.05v5.61h5.61v-5.61zm-.69-17.28v6.77h6.77v-6.77zm9.58 42.73v4.67H568v-4.67zm-.47-17.26v5.83h5.59V768zm-.71-17v6.77h6.78V751zm8.41 8.17v6.77h6.77v-6.77zm0 0v6.77h6.77v-6.77zm-8.41-1.4h6.78V751h-6.78zm.71 16.11h5.59V768h-5.59zm.47 16.11H568v-4.67h-4.43zM554 749.3h6.77v-6.77H554zm.69 16.12h5.61v-5.61h-5.61zm.47 16.11h4.67v-4.67h-4.67zm.47 16.11h3.74v-3.5h-3.74zm.7 16.12h2.33v-2.35h-2.33zm-10.51-72.86h6.78v-6.78h-6.78zm.47 16.11h5.61v-5.6h-5.61zm.71 16.12h4.43v-4.45H547zm.46 16.11H551v-3.51h-3.5zm.47 16.1h2.33V803h-2.33zm-9.58-56.5H544v-5.61h-5.61zm.23 16.11H543v-4.67h-4.45zm.47 16.11h3.51v-3.5h-3.51zm.47 15.88h2.34v-2.33h-2.34zm-8.17-8.18h2.33v-2.33h-2.33zm65.38-103.67c-42.5 0-75.19 45.53-75.19 104.15 0 52.76 29 104.84 75.42 104.84 43.2 0 75.2-44.83 75.2-104.61 0-53.47-28.26-104.38-75.43-104.38zm25.69 34.79H625v2.8h-2.56zm-8.42-8.17h2.81v2.57H614zm-.7 15.87h4.2v.94l-4.2 1.63zm-7.47-24.27h2.56v2.79h-2.56zm-.94 15.87h4.21v4.21h-4.2zm-7.47-24H600v2.57h-2.57zm-.7 15.87h4v4h-4zm-.7 15.89h5.37v5.6H596zm-7.71-24.29h4.21v4.21h-4.21zm-.69 15.88h5.6v5.6h-5.6zm-.47 16.11h6.77v6.78h-6.77zm-.71 15.88h1.64l-1.64 2.1zm-6.3-53.94l4-1.17v3h-4zm-.7 13.78h5.37v5.37h-5.37zm-.7 15.88h6.77V733h-6.77zm-7.7-24.29h5.6v5.6h-5.6zm-.7 16.05h6.78v6.78h-6.78zm-8.17-8.4h6.77v6.77h-6.77zm9.1 71.45a150.89 150.89 0 0 0-5.6 21.25H564v3.74h1a143.36 143.36 0 0 0-1.63 22.65c0 20.32 2.1 36 6.77 49-26.39-16.11-39.93-52.31-39.93-88.26a132.24 132.24 0 0 1 .93-16.81h3.27v-3.51h-2.8c1.87-11.91 5.14-24.52 11-36h2.09V729l2.35-4h6.07v-7.69h8.16v7.93h-7.7v7.94h7.94v-7.71h7.94v8.18h-7.47v7.93h7.94v-7.7h7.93v8.17h-7.7v8h7.94v-7.75h8.18v7.94h-7.71v7.93h4a110.27 110.27 0 0 0-9.34 18.22h-1.88zM597 885.68a50.07 50.07 0 0 1-15.64-2.57c-6.54-13.78-9.58-30.36-9.58-54.41 0-54 29.19-95.74 66.79-95.74a34.83 34.83 0 0 1 14.48 2.8c6.77 15.18 10.74 33.39 10.74 53.71-.04 55.1-28.79 96.21-66.79 96.21zm-19.42-126.57h-6.77v6.77h6.77zm-15.18-1.4h6.78v-6.77h-6.78zm.71 16.11h5.59V768h-5.59zm.47 16.11H568v-4.67h-4.43zM554 749.3h6.77v-6.77H554zm.69 16.12h5.61v-5.61h-5.61zm.47 16.11h4.67v-4.67h-4.67zm.47 16.11h3.74v-3.5h-3.74zm.7 16.12h2.33v-2.35h-2.33zm-10.51-72.86h6.78v-6.78h-6.78zm.47 16.11h5.61v-5.6h-5.61zm.71 16.12h4.43v-4.45H547zm.46 16.11H551v-3.51h-3.5zm.47 16.1h2.33V803h-2.33zm-9.58-56.5H544v-5.61h-5.61zm.23 16.11H543v-4.67h-4.45zm.47 16.11h3.51v-3.5h-3.51zm.47 15.88h2.34v-2.33h-2.34zm-8.17-8.18h2.33v-2.33h-2.33zm0-2.33v2.33h2.33v-2.33zm8.17 8.18v2.33h2.34v-2.33zm-.47-17.05v3.5h3.51v-3.5zm-.47-17.28V765H543v-4.67zm-.23-17v5.61H544v-5.61zm9.58 59.72v2.33h2.33V803zm-.47-17.28v3.51H551v-3.51zm-.46-17.04v4.45h4.43v-4.45zm-.71-17.27V757h5.61v-5.6zm-.47-17.29v6.78h6.78v-6.78zm10.51 77.29v2.35h2.33v-2.35zm-.7-17.27v3.5h3.74v-3.5zm-.47-17.28v4.67h4.67v-4.67zm-.47-17.05v5.61h5.61v-5.61zm-.69-17.28v6.77h6.77v-6.77zm9.58 42.73v4.67H568v-4.67zm-.47-17.26v5.83h5.59V768zm-.71-17v6.77h6.78V751zm8.41 8.17v6.77h6.77v-6.77zm0 0v6.77h6.77v-6.77zM562.4 751v6.77h6.78V751zm.71 17v5.83h5.59V768zm.47 17.27v4.67H568v-4.67zM554 742.53v6.77h6.77v-6.77zm.69 17.28v5.61h5.61v-5.61zm.47 17.05v4.67h4.67v-4.67zm.47 17.28v3.5h3.74v-3.5zm.7 17.27v2.35h2.33v-2.35zm-10.51-77.29v6.78h6.78v-6.78zm.47 17.29V757h5.61v-5.6zm.71 17.27v4.45h4.43v-4.45zm.46 17.05v3.51H551v-3.51zm.47 17.28v2.33h2.33V803zm-9.58-59.78v5.61H544v-5.61zm.23 17V765H543v-4.67zm.47 17.28v3.5h3.51v-3.5zm.47 17.05v2.33h2.34v-2.33zm-8.17-8.18v2.33h2.33v-2.33zm0 0v2.33h2.33v-2.33zm8.17 8.18v2.33h2.34v-2.33zm-.47-17.05v3.5h3.51v-3.5zm-.47-17.28V765H543v-4.67zm-.23-17v5.61H544v-5.61zm9.58 59.77v2.33h2.33V803zm-.47-17.28v3.51H551v-3.51zm-.46-17.04v4.45h4.43v-4.45zm-.71-17.27V757h5.61v-5.6zm-.47-17.29v6.78h6.78v-6.78zm10.51 77.29v2.35h2.33v-2.35zm-.7-17.27v3.5h3.74v-3.5zm-.47-17.28v4.67h4.67v-4.67zm-.47-17.05v5.61h5.61v-5.61zm-.69-17.28v6.77h6.77v-6.77zm9.58 42.73v4.67H568v-4.67zm-.47-17.26v5.83h5.59V768zm-.71-17v6.77h6.78V751zm8.41 8.17v6.77h6.77v-6.77zm-39.46 27.32v2.33h2.33v-2.33zm7-43.2v5.61H544v-5.61zm.23 17V765H543v-4.67zm.47 17.28v3.5h3.51v-3.5zm.47 17.05v2.33h2.34v-2.33zm6.3-60.49v6.78h6.78v-6.78zm.47 17.29V757h5.61v-5.6zm.71 17.27v4.45h4.43v-4.45zm.46 17.05v3.51H551v-3.51zm.47 17.28v2.33h2.33V803zm6.07-60.49v6.77h6.77v-6.77zm.69 17.28v5.61h5.61v-5.61zm.47 17.05v4.67h4.67v-4.67zm.47 17.28v3.5h3.74v-3.5zm.7 17.27v2.35h2.33v-2.35zm6.07-60.47v6.77h6.78v-6.77zm.71 17v5.83h5.59V768zm.47 17.27v4.67H568v-4.67zm7.23-26.15v6.77h6.77v-6.77zm139.88 154.17v7.94h7.93v-7.94zm8.64-7.93v7.23h7.23v-7.23zm-.24 16.34v7.71h7.71v-7.71zM728.2 881v5.83h6.07V881zm-.2 16.35v6.54h6.54v-6.54zm-.23 16.11v7.24h7v-7.24zm-.46 16.35v7.94h7.93v-7.94zm10-73.09v4.43H742v-4.43zm-.47 16.11v5.37h5.37v-5.37zm-.24 16.35v6.07h5.85v-6.07zm-.22 16.34v6.54h6.53v-6.54zm-.47 16.36v7.23h7.23v-7.23zm-.24 16.34v7.93h7.71v-7.93zm11-138.71v2.33H749v-2.33zm-.22 16.35v2.8h3v-2.8zm-.24 16.34v3.5h3.5v-3.5zm-.21 16.34v4h4v-4zm-.47 16.35v4.68h4.67v-4.68zm-.23 16.35v5.37h5.36v-5.37zm-.3 16.35v5.83h5.84v-5.83zm-.47 16.34v6.54h6.54v-6.54zm-.23 16.35v7.23h7.24v-7.23zm10.74-122.37v2.34h2.34v-2.34zm-.23 16.35v2.8h2.8v-2.8zm-.47 16.34v3.51h3.51v-3.51zm-.22 16.4v4h4.2v-4zm-.23 16.34V878h4.67v-4.7zm-.24 16.35v5.13h5.14v-5.13zm-.47 16.31v5.84h6.07V906zm10.28-89.9v2.33h2.33v-2.33zm-.46 16.34v3h3v-3zm-.24 16.34v3.5h3.5v-3.5zm-.23 16.34v4.21h4v-4.21zm-.24 16.35v4.68h4.44v-4.68zm-.47 16.34v5.38h5.37v-5.38zm9.81-73.32v2.34H774v-2.34zm-.23 16.35v2.8h2.8v-2.8zm-.24 16.34v3.51h3.5v-3.51zm-.23 16.36v4h4v-4zm-60.24 39.69v7.94h7.93v-7.94zm8.4 8.41v7.71h7.71v-7.71zm.24-16.34v7.23h7.23v-7.23zm7.94 24.51v7.94h7.93v-7.94zm.46-16.35v7.24h7v-7.24zm.23-16.11v6.54h6.54v-6.54zm.24-16.35v5.83h6.07V881zm7.47 57.21v7.93h7.71v-7.93zm.24-16.34v7.23h7.23v-7.23zm.47-16.36v6.54h6.53v-6.54zm.22-16.34v6.07h5.85v-6.07zm.24-16.35v5.37h5.37v-5.37zm.47-16.11v4.43H742v-4.43zm7 73.56v7.23h7.24v-7.23zm.23-16.35v6.54h6.54v-6.54zm.47-16.34v5.83h5.84v-5.83zm.24-16.35v5.37h5.36v-5.37zm.23-16.35v4.68h4.67v-4.68zm.47-16.35v4h4v-4zm.23-16.34v3.5h3.5v-3.5zm.24-16.34v2.8h3v-2.8zm.22-16.35v2.33H749v-2.33zm6.54 106.5v5.84h6.07V906zm.47-16.34v5.13h5.14v-5.13zm.24-16.35V878h4.67v-4.7zm.23-16.34v4h4.2v-4zm.23-16.36v3.51h3.51v-3.52zm.47-16.34v2.8h2.8v-2.8zm.23-16.35v2.34h2.34v-2.34zm6.77 89.9v5.38h5.37v-5.38zm.47-16.34v4.68h4.44v-4.68zm.24-16.35v4.21h4v-4.21zm.23-16.34v3.5h3.5v-3.5zm.24-16.34v3h3v-3zm.46-16.35v2.33h2.33v-2.33zm7.47 57.45v4h4v-4zm.23-16.36v3.51h3.5v-3.51zm.24-16.34v2.8h2.8v-2.8zm.23-16.35v2.34H774v-2.34z" fill="#401128"/><path d="M1000,829.4h-4.21V670.15l-49-49H851.22L699.9,843.88v52.54l49.05,49H871.77v8.4l49,49h75V946.39H1049V878.44ZM871.77,807v24.29H851.69Z" fill="#9ad9f5"/><path d="M777.19 839.67h103V692.56zm84.54-104.84h2.81v3h-2.81zm-.23 16.34h3.5v3.5h-3.5zm-.5 16.35h4.2v4.2H861zm-.23 16.34h4.67v4.9h-4.64zm-.47 16.35h5.61V803l-1.87 2.57h-3.74zm-7.47-53.94l2.1-3h1.63v3.5h-3.73zm-.24 12.84h4.21v4.2h-4.21zm-.23 16.35h4.9v4.9h-4.9zm-.24 16.34h5.38v5.6h-5.38zm-.46 16.35h6.07v6.07h-6.07zm-3-55.81v2.8h-1.86zM844 767.28h4.9v4.9H844zm-.24 16.35h5.61V789h-5.61zm-.24 16.12h6.07v6.3h-6.07zm-8.16-24.53H841v5.38h-5.6zm-.24 16.35h6.07v6.07h-6.07zm-.47 16.34h7v6.78h-7zm-7.94-24l.47-.69H833v6.07h-6.3zm-.23 15.65h6.77v6.77h-6.77zm-8.41-3.27l3.5-5.14h3.28v7h-6.78zm-.23 11.21h7.48v7.47h-7.48zM816 799h.93v7.71h-6.3zm-7 10v6.3h-4.43zm.24 22.19h-8.64V824h-1.87l2.34-3.51v3h8.17v-7.94h8.18v7.94h-8.18zm16.34 0h-8.16v-7.39h8.16zm7.94-7.94H826v-7.47h7.47zm8.41 7.94h-7.47v-7h7.47zm7.94-8.18h-6.77v-7h6.77zm21.95 8.18h-20.13L871.77 807zm0-36.66l-1.64 2.33H869v-4.67h2.8zm0-14.48h-2.33v-4.21h2.33zm0-17h-2.1v-3.5h2.1zm0-17.05h-1.92v-2.8h1.87zm0-16.81h-1.4v-2.33h1.4zm78.18 5.17v2.33h2.34v-2.33zm-.47-17v3.26h3.27v-3.26zm.94 217.16v2.8h2.8v-2.8zm7.94-191.72v2.34h2.33v-2.34zm-.47-17.28v3.28h3.27v-3.28zm.93 217.41v2.57h2.57v-2.57zm-1.4-234.45v4.2h4.2v-4.2zm-.47-17.09v5.14h5.13v-5.14zm-.48-17v5.85h6.07v-5.85zm.94 250.56v5.38h5.37v-5.43zm-1.4-267.6v6.77h7v-6.82zm10.5 93.64v2.33h2.34v-2.33zm-.46-17.05v3.27h3.27v-3.27zm-.23-17v4.2h4v-4.2zm1.17 234.44v2.57h2.8v-2.57zm-1.87-251.58v4.9h5.14v-4.9zm-.17-17.28v6.07h5.83v-6.07zm.93 250.8v5.13H971v-5.13zm-1.4-267.85v7h6.77v-7zM975 759.34v2.34h2.33v-2.34zm-.47-17v3.26h3.27v-3.3zm.93 217.17v2.8H978v-2.8zM974.05 725v4.21h4.2V725zm-.46-17v5.14h5.13V708zm-.48-17.05V697h6.07v-6.08zm1.17 250.8v5.14h5.14v-5.14zm-1.63-267.84v6.77h7v-6.77zm10.74 93.87v2.34h2.33v-2.34zm-.47-17.28v3.27h3.27v-3.27zm.94 217.4v2.57h2.57v-2.57zm-1.4-234.44v4.2h4.21v-4.2zm-.47-17v5.13h5.14v-5.13zm-204.8 123.21h103V692.56zm84.54-104.84h2.81v3h-2.81zm-.23 16.34h3.5v3.5h-3.5zm-.5 16.35h4.2v4.2H861zm-.23 16.34h4.67v4.9h-4.64zm-.47 16.35h5.61V803l-1.87 2.57h-3.74zm-7.47-53.94l2.1-3h1.63v3.5h-3.73zm-.24 12.84h4.21v4.2h-4.21zm-.23 16.35h4.9v4.9h-4.9zm-.24 16.34h5.38v5.6h-5.38zm-.46 16.35h6.07v6.07h-6.07zm-3-55.81v2.8h-1.86zM844 767.28h4.9v4.9H844zm-.24 16.35h5.61V789h-5.61zm-.24 16.12h6.07v6.3h-6.07zm-8.16-24.53H841v5.38h-5.6zm-.24 16.35h6.07v6.07h-6.07zm-.47 16.34h7v6.78h-7zm-7.94-24l.47-.69H833v6.07h-6.3zm-.23 15.65h6.77v6.77h-6.77zm-8.41-3.27l3.5-5.14h3.28v7h-6.78zm-.23 11.21h7.48v7.47h-7.48zM816 799h.93v7.71h-6.3zm-7 10v6.3h-4.43zm.24 22.19h-8.64V824h-1.87l2.34-3.51v3h8.17v-7.94h8.18v7.94h-8.18zm16.34 0h-8.16v-7.39h8.16zm7.94-7.94H826v-7.47h7.47zm8.41 7.94h-7.47v-7h7.47zm7.94-8.18h-6.77v-7h6.77zm21.95 8.18h-20.13L871.77 807zm0-36.66l-1.64 2.33H869v-4.67h2.8zm0-14.48h-2.33v-4.21h2.33zm0-17h-2.1v-3.5h2.1zm0-17.05h-1.92v-2.8h1.87zm0-16.81h-1.4v-2.33h1.4zm112.04 238.68v2.57h2.57v-2.57zm-9.58-21h5.14v-5.14h-5.14zm1.17 15.41H978v-2.8h-2.57zm-9.57-23.82H971v-5.13h-5.14zm1.17 15.41h2.8v-2.57h-2.8zm-9.58-23.58h5.37v-5.39h-5.37zm1.4 15.18h2.57v-2.57h-2.57zm-8.4-8.18h2.8v-2.8h-2.8zM982 716.38v5.13h5.14v-5.13zm.47 21.25h4.21v-4.2h-4.21zm.46 16.11h3.27v-3.27h-3.27zm.47 16.35h2.33v-2.34h-2.33zm-10.74-89.44h7v-6.77h-7zm.46 16.35h6.07v-6.08h-6.07zm.48 16.11h5.13V708h-5.13zm.46 16.11h4.2V725h-4.2zm.47 16.34h3.27v-3.26h-3.27zm.47 16.12h2.33v-2.34H975zm-10.51-89.2h6.77v-7h-6.77zm.47 16.11h5.83v-6.07H965zm.22 16.11h5.14v-4.9h-5.14zm.71 16.35h4v-4.2h-4zm.23 16.11h3.27v-3.27h-3.27zm.46 16.11h2.34v-2.33h-2.34zm-10.5-89.2h7v-6.77h-7zm.46 16.12h6.07v-5.85h-6.07zm.48 16.34h5.13v-5.14H957zm.46 16.11h4.2v-4.2h-4.2zm.47 16.12h3.27v-3.28h-3.27zm.47 16.34h2.33v-2.34h-2.33zm-8.88-24.52h3.27v-3.26h-3.27zm.47 16.11h2.34v-2.33H950zm50 92.71h-4.21V670.15l-49-49h-95.58L699.9 843.88v52.54l49.05 49h122.82v8.4l49 49h75v-56.43H1049v-67.95zM949.3 704.24h4v-4h-4v-12.12h4.43V683h-4.43v-11h4.9v-6.07h-4.9v-10.27h5.37v-6.77h-5.37v-9.34h4.21l2.09 2.1V648h6.31l2.1 2.1v6.07h6.08l2.09 2.1v6.31h6.31l2.1 2.1v6.3h6.3l.47.47v8.64h-6.3v7h6.3v10.27h-5.83v5.84h5.83v124.2H949.3zM725.59 904.12h-6.3V899h6.3zm8.4 8.41h-6.3v-6.3H734zm8.65 8.64h-6.3v-6.31h6.3zm-6.54-17V899h6.31v5.13zm14.95 25.45h-6.31v-6.3h6.31zm-6.54-17v-6.3h6.3v6.3zm15.17 24.52h-6.3v-5.13h6.3zm-6.54-15.88v-6.31h6.31v6.31zm6.54-17h-6.3V899h6.3zm8.18 25.45h-6.3v-6.3h6.3zm.24-17h-6.31v-6.3h6.31zm8.4 24.52h-6.31v-5.13h6.31zm.23-15.88h-6.3v-6.31h6.3zm-5.84-17.51V899h5.37v4.67zm14.25 25.91h-6.31v-6.3h6.31zm-5.84-17.45v-5.61h5.6v5.61zm14.47 24.75h-6.3v-5.13h6.3zm-.46-21.71v5.36h-5.37v-5.36zm-5.13-12.15V899h4.66v4.2zM802 929.35h-5.61v-5.61H802zm-5.14-17.52v-4.67h4.67v4.67zm13.54 25.22H805v-4.67h5.36zm-.46-21.49v4.68h-4.67v-4.68zm-4.2-12.83V899h3.73v3.74zm12.84 26.15h-4.66v-4.67h4.66zm-4.2-17.52v-3.73h3.73v3.73zm12.6 25.69h-4.66v-4.2h4.66zm-.46-21v3.74h-3.73V916zm-3.27-13.77v-2.81h3v2.81zm11.91 26.15h-3.73v-3.74h3.73zm-3.27-17.52v-2.8h2.8v2.8zm11.67 25.93h-3.73v-3.74h3.73zm-.23-20.32v2.81h-3v-2.83zM840.71 902v-2.33h2.34V902zm11 25.92h-2.8v-2.8h2.8zm-2.57-17.51v-2.34h2.34v2.34zm11.21 25.92h-3v-2.81h3zm-2.57-17.28v-2.33h2.33v2.33zm10.75 8.4h-2.35v-2.33h2.35zm118.85 22.42h-4.9v5.37h4.9v39.23l-38.08-38.04v-34.55h5.14v-5.14h-5.14v-10.28h4.9l2.1 2.1v6.3h6.3l2.11 2.1V923h6.07l2.1 2.1v6.3h6.3l2.11 2.1v6.31l6.07.23zm6.78-58.38H940.9V948h-60.73v-57.42H708.32v-43.9l147.57-217.17h85v208.3h53.24zM1040.6 938l-38.06-38.06v-56.3l38.06 38.06zM982 721.51h5.14v-5.13H982zm.47 16.12h4.21v-4.2h-4.21zm4 230.24h-2.57v2.57h2.57zm-3.51-214.13h3.27v-3.27h-3.27zm.47 16.35h2.33v-2.34h-2.33zm-10.74-89.44h7v-6.77h-7zm1.63 266.21h5.14v-5.14h-5.14zM973.11 697h6.07v-6.08h-6.07zm.48 16.11h5.13V708h-5.13zm.46 16.11h4.2V725h-4.2zm1.4 233H978v-2.8h-2.57zm-.93-216.71h3.27v-3.21h-3.27zm.47 16.12h2.33v-2.34H975zm-10.51-89.2h6.77v-7h-6.77zm1.4 266H971v-5.13h-5.14zM965 688.59h5.83v-6.07H965zm.22 16.11h5.14v-4.9h-5.14zm1.88 249.16h2.8v-2.57h-2.8zm-1.17-232.81h4v-4.2h-4zm.23 16.11h3.27v-3.27h-3.27zm.46 16.11h2.34v-2.33h-2.34zm-10.5-89.2h7v-6.77h-7zm1.4 266.21h5.37v-5.38h-5.37zm-.94-250.09h6.07v-5.85h-6.07zm.48 16.34h5.13v-5.14H957zm.46 16.11h4.2v-4.2h-4.2zm1.4 232.82h2.57v-2.57h-2.57zm-.93-216.7h3.27v-3.28h-3.27zm.47 16.34h2.33v-2.34h-2.33zm-7.94 192.18h2.8v-2.8h-2.8zm-.94-216.7h3.27v-3.26h-3.27zm.47 16.11h2.34v-2.33H950zm-69.83 103V692.56l-103 147.11zm-9.8-112.78h1.4v2.33h-1.4zm-.47 16.34h1.87V746h-1.92zm-.23 16.35h2.1v3.5h-2.1zm-.23 16.34h2.33v4.21h-2.33zm-.49 16.33h2.8v2.34l-1.64 2.33H869zm-7.24-57.44h2.81v3h-2.81zm-.23 16.34H865v3.5h-3.5zm-.53 16.35h4.2v4.2H861zm-.23 16.34h4.67v4.9h-4.64zm-.47 16.35h5.61V803l-1.87 2.57h-3.74zm-7.47-53.94l2.1-3h1.63v3.5h-3.73zm-.24 12.84h4.21v4.2h-4.21zm-.23 16.35h4.9v4.9h-4.9zm-.24 16.34h5.38v5.6h-5.38zm-.46 16.35h6.07v6.07h-6.07zm20.11-1.15v24.29h-20.08zm-23.12-54.64v2.8h-1.86zM844 767.28h4.9v4.9H844zm-.24 16.35h5.61V789h-5.61zm-.24 16.12h6.07v6.3h-6.07zm-.46 16.34h6.77v7h-6.77zm-7.7-40.87H841v5.38h-5.6zm-.24 16.35h6.07v6.07h-6.07zm-.47 16.34h7v6.78h-7zm-.23 16.35h7.47v7h-7.47zm-7.71-40.4l.47-.69H833v6.07h-6.3zm-.23 15.65h6.77v6.77h-6.77zm-.48 16.35h7.47v7.47H826zm-.47 15.41h-8.16v-7.47h8.16zm-7.47-35l3.5-5.14h3.28v7h-6.78zm-.23 11.21h7.48v7.47h-7.48zM816 799h.93v7.71h-6.3zm-7 10v6.3h-4.43zm.24 14.48v-7.94h8.18v7.94h-8.18v7.71h-8.64V824h-1.87l2.34-3.51v3zm-32 16.11h103V692.56zm84.54-104.84h2.81v3h-2.81zm-.23 16.34H865v3.5h-3.5zm-.55 16.43h4.2v4.2H861zm-.23 16.34h4.67v4.9h-4.64zm-.47 16.35h5.61V803l-1.87 2.57h-3.74zm-7.47-53.94l2.1-3h1.63v3.5h-3.73zm-.24 12.84h4.21v4.2h-4.21zm-.23 16.35h4.9v4.9h-4.9zm-.24 16.34h5.38v5.6h-5.38zm-.46 16.35h6.07v6.07h-6.07zm-3-55.81v2.8h-1.86zM844 767.28h4.9v4.9H844zm-.24 16.35h5.61V789h-5.61zm-.24 16.12h6.07v6.3h-6.07zm-8.16-24.53H841v5.38h-5.6zm-.24 16.35h6.07v6.07h-6.07zm-.47 16.34h7v6.78h-7zm-7.94-24l.47-.69H833v6.07h-6.3zm-.23 15.65h6.77v6.77h-6.77zm-8.41-3.27l3.5-5.14h3.28v7h-6.78zm-.23 11.21h7.48v7.47h-7.48zM816 799h.93v7.71h-6.3zm-7 10v6.3h-4.43zm.24 22.19h-8.64V824h-1.87l2.34-3.51v3h8.17v-7.94h8.18v7.94h-8.18zm16.34 0h-8.16v-7.39h8.16zm7.94-7.94H826v-7.47h7.47zm8.41 7.94h-7.47v-7h7.47zm7.94-8.18h-6.77v-7h6.77zm21.95 8.18h-20.13L871.77 807zm0-36.66l-1.64 2.33H869v-4.67h2.8zm0-14.48h-2.33v-4.21h2.33zm0-17h-2.1v-3.5h2.1zm0-17.05h-1.92v-2.8h1.87zm0-16.81h-1.4v-2.33h1.4zm-94.63 110.48h103V692.56zm84.54-104.84h2.81v3h-2.81zm-.23 16.34h3.5v3.5h-3.5zm-.5 16.35h4.2v4.2H861zm-.23 16.34h4.67v4.9h-4.64zm-.47 16.35h5.61V803l-1.87 2.57h-3.74zm-7.47-53.94l2.1-3h1.63v3.5h-3.73zm-.24 12.84h4.21v4.2h-4.21zm-.23 16.35h4.9v4.9h-4.9zm-.24 16.34h5.38v5.6h-5.38zm-.46 16.35h6.07v6.07h-6.07zm-3-55.81v2.8h-1.86zM844 767.28h4.9v4.9H844zm-.24 16.35h5.61V789h-5.61zm-.24 16.12h6.07v6.3h-6.07zm-8.16-24.53H841v5.38h-5.6zm-.24 16.35h6.07v6.07h-6.07zm-.47 16.34h7v6.78h-7zm-7.94-24l.47-.69H833v6.07h-6.3zm-.23 15.65h6.77v6.77h-6.77zm-8.41-3.27l3.5-5.14h3.28v7h-6.78zm-.23 11.21h7.48v7.47h-7.48zM816 799h.93v7.71h-6.3zm-7 10v6.3h-4.43zm.24 22.19h-8.64V824h-1.87l2.34-3.51v3h8.17v-7.94h8.18v7.94h-8.18zm16.34 0h-8.16v-7.39h8.16zm7.94-7.94H826v-7.47h7.47zm8.41 7.94h-7.47v-7h7.47zm7.94-8.18h-6.77v-7h6.77zm21.95 8.18h-20.13L871.77 807zm0-36.66l-1.64 2.33H869v-4.67h2.8zm0-14.48h-2.33v-4.21h2.33zm0-17h-2.1v-3.5h2.1zm0-17.05h-1.92v-2.8h1.87zm0-16.81h-1.4v-2.33h1.4zm78.18 5.17v2.33h2.34v-2.33zm-.47-17v3.26h3.27v-3.26zm8.88 25.44v2.34h2.33v-2.34zm-.47-17.28v3.28h3.27v-3.28zm-.47-17v4.2h4.2v-4.2zm-.47-17.13v5.14h5.13v-5.14zm-.48-17v5.85h6.07v-5.85zm-.46-17v6.77h7v-6.86zm10.5 93.64v2.33h2.34v-2.33zm-.46-17.05v3.27h3.27v-3.27zm-.23-17v4.2h4v-4.2zm-.71-17.05v4.9h5.14v-4.9zm-.16-17.41v6.07h5.83v-6.07zm-.47-17v7h6.77v-7zM975 759.34v2.34h2.33v-2.34zm-.47-17v3.26h3.27v-3.3zm-.48-17.34v4.21h4.2V725zm-.46-17v5.14h5.13V708zm-.48-17.05V697h6.07v-6.08zm-.46-17v6.77h7v-6.77zm10.74 93.87v2.34h2.33v-2.34zm-.47-17.28v3.27h3.27v-3.27zm-.46-17v4.2h4.21v-4.2zm-.47-17v5.13h5.14v-5.13zm-31.52 218.1v2.8h2.8v-2.8zm8.4 8.41v2.57h2.57v-2.57zm-1.4-18v5.38h5.37v-5.53zm9.58 26.39v2.57h2.8v-2.57zm-1.17-18v5.13H971v-5.13zm9.57 26.15v2.8H978v-2.8zm-1.17-17.75v5.14h5.14v-5.14zm9.58 26.15v2.57h2.57v-2.57zm-34.33-250.67v3.26h3.27v-3.26zm.47 17v2.33h2.34v-2.33zm.47 200.12v2.8h2.8v-2.8zm5.6-277.18v6.77h7v-6.73zm.46 17v5.85h6.07v-5.85zm.48 17v5.14h5.13v-5.14zm.46 17.05v4.2h4.2v-4.2zm0 216.46v5.38h5.37v-5.25zm.47-199.42v3.28h3.27v-3.28zm.47 17.28v2.34h2.33v-2.34zm.46 200.13v2.57h2.57v-2.57zm5.61-277.42v7h6.77v-7zm.47 17v6.07h5.83v-6.07zm.22 17.28v4.9h5.14v-4.9zm.71 17.05v4.2h4v-4.2zm0 216.47v5.13H971v-5.13zm.23-199.43v3.27h3.27v-3.27zm.46 17.05v2.33h2.34v-2.33zm.48 200.35v2.57h2.8v-2.57zm5.6-277.41v6.77h7v-6.77zm.46 17v6.3h6.07v-6.08zm.48 17.05v5.14h5.13V708zm.46 17v4.21h4.2V725zm.23 216.71v5.14h5.14v-5.14zm.24-199.42v3.26h3.27v-3zm.47 17v2.34h2.33v-2.34zm.46 200.13v2.8H978v-2.8zM982 716.38v5.13h5.14v-5.13zm.47 17v4.2h4.21v-4.2zm.46 17v3.27h3.27v-3.27zm.47 17.28V770h2.33v-2.34zm.47 200.12v2.57h2.57v-2.57z" fill="#152b35"/></svg>